<?xml version="1.0" encoding="utf-8"?>
<!-- Generator: Adobe Illustrator 21.1.0, SVG Export Plug-In . SVG Version: 6.00 Build 0)  -->
<svg version="1.1" id="Warstwa_1" xmlns="http://www.w3.org/2000/svg" xmlns:xlink="http://www.w3.org/1999/xlink" x="0px" y="0px"
	 viewBox="30 30 210.9 85.9" style="enable-background:new 0 0 240.9 155.9;" xml:space="preserve">
<style type="text/css">
	.st0{fill:url(#SVGID_1_);}
	.st1{fill:#E4B079;}
	.st2{fill:url(#SVGID_2_);}
	.st3{fill:url(#SVGID_3_);}
	.st4{fill:url(#SVGID_4_);}
	.st5{fill:url(#SVGID_5_);}
	.st6{fill:none;stroke:url(#SVGID_6_);stroke-width:0.32;stroke-miterlimit:10;}
	.st7{fill:none;stroke:#E4B079;stroke-width:0.32;stroke-miterlimit:10;}
	.st8{fill:none;stroke:url(#SVGID_7_);stroke-width:0.32;stroke-miterlimit:10;}
	.st9{fill:none;stroke:url(#SVGID_8_);stroke-width:0.32;stroke-miterlimit:10;}
	.st10{fill:none;stroke:url(#SVGID_9_);stroke-width:0.32;stroke-miterlimit:10;}
	.st11{fill:#11263C;}
	.st12{fill:none;stroke:url(#SVGID_10_);stroke-width:0.32;stroke-miterlimit:10;}
	.st13{fill:none;stroke:url(#SVGID_11_);stroke-width:0.32;stroke-miterlimit:10;}
	.st14{fill:none;stroke:url(#SVGID_12_);stroke-width:0.32;stroke-miterlimit:10;}
	.st15{fill:none;stroke:url(#SVGID_13_);stroke-width:0.32;stroke-miterlimit:10;}
	.st16{fill:none;stroke:#E4B079;stroke-width:0.2;stroke-miterlimit:10;}
	.st17{fill:url(#SVGID_14_);}
	.st18{fill:#FFFFFF;}
	.st19{clip-path:url(#SVGID_16_);fill:#E2AF78;}
	.st20{clip-path:url(#SVGID_16_);fill:#E1AD76;}
	.st21{clip-path:url(#SVGID_16_);fill:#E0AC75;}
	.st22{clip-path:url(#SVGID_16_);fill:#DEAB74;}
	.st23{clip-path:url(#SVGID_16_);fill:#DDA973;}
	.st24{clip-path:url(#SVGID_16_);fill:#DCA871;}
	.st25{clip-path:url(#SVGID_16_);fill:#DAA670;}
	.st26{clip-path:url(#SVGID_16_);fill:#D9A56F;}
	.st27{clip-path:url(#SVGID_16_);fill:#D7A36D;}
	.st28{clip-path:url(#SVGID_16_);fill:#D6A26C;}
	.st29{clip-path:url(#SVGID_16_);fill:#D5A06B;}
	.st30{clip-path:url(#SVGID_16_);fill:#D39F6A;}
	.st31{clip-path:url(#SVGID_16_);fill:#D29E68;}
	.st32{clip-path:url(#SVGID_16_);fill:#D09C67;}
	.st33{clip-path:url(#SVGID_16_);fill:#CF9B66;}
	.st34{clip-path:url(#SVGID_16_);fill:#CE9965;}
	.st35{clip-path:url(#SVGID_16_);fill:#CC9863;}
	.st36{clip-path:url(#SVGID_16_);fill:#CB9662;}
	.st37{clip-path:url(#SVGID_16_);fill:#CA9561;}
	.st38{clip-path:url(#SVGID_16_);fill:#C89460;}
	.st39{clip-path:url(#SVGID_16_);fill:#C7925F;}
	.st40{clip-path:url(#SVGID_16_);fill:#C6915E;}
	.st41{clip-path:url(#SVGID_16_);fill:#C4905C;}
	.st42{clip-path:url(#SVGID_16_);fill:#C38E5B;}
	.st43{clip-path:url(#SVGID_16_);fill:#C28D5A;}
	.st44{clip-path:url(#SVGID_16_);fill:#C08C59;}
	.st45{clip-path:url(#SVGID_16_);fill:#BF8A58;}
	.st46{clip-path:url(#SVGID_16_);fill:#BE8957;}
	.st47{clip-path:url(#SVGID_16_);fill:#BD8856;}
	.st48{clip-path:url(#SVGID_16_);fill:#BB8755;}
	.st49{clip-path:url(#SVGID_16_);fill:#BA8553;}
	.st50{clip-path:url(#SVGID_16_);fill:#B98452;}
	.st51{clip-path:url(#SVGID_16_);fill:#B88351;}
	.st52{clip-path:url(#SVGID_16_);fill:#B68250;}
	.st53{clip-path:url(#SVGID_16_);fill:#E4B079;}
	.st54{clip-path:url(#SVGID_16_);fill:#B5804F;}
	.st55{clip-path:url(#SVGID_18_);fill:#E1AD76;}
	.st56{clip-path:url(#SVGID_18_);fill:#E0AC75;}
	.st57{clip-path:url(#SVGID_18_);fill:#DEAB74;}
	.st58{clip-path:url(#SVGID_18_);fill:#DDA973;}
	.st59{clip-path:url(#SVGID_18_);fill:#DCA871;}
	.st60{clip-path:url(#SVGID_18_);fill:#DAA670;}
	.st61{clip-path:url(#SVGID_18_);fill:#D9A56F;}
	.st62{clip-path:url(#SVGID_18_);fill:#D7A36D;}
	.st63{clip-path:url(#SVGID_18_);fill:#D6A26C;}
	.st64{clip-path:url(#SVGID_18_);fill:#D5A06B;}
	.st65{clip-path:url(#SVGID_18_);fill:#D39F6A;}
	.st66{clip-path:url(#SVGID_18_);fill:#D29E68;}
	.st67{clip-path:url(#SVGID_18_);fill:#D09C67;}
	.st68{clip-path:url(#SVGID_18_);fill:#CF9B66;}
	.st69{clip-path:url(#SVGID_18_);fill:#CE9965;}
	.st70{clip-path:url(#SVGID_18_);fill:#CC9863;}
	.st71{clip-path:url(#SVGID_18_);fill:#CB9662;}
	.st72{clip-path:url(#SVGID_18_);fill:#CA9561;}
	.st73{clip-path:url(#SVGID_18_);fill:#C89460;}
	.st74{clip-path:url(#SVGID_18_);fill:#C7925F;}
	.st75{clip-path:url(#SVGID_18_);fill:#C6915E;}
	.st76{clip-path:url(#SVGID_18_);fill:#C4905C;}
	.st77{clip-path:url(#SVGID_18_);fill:#C38E5B;}
	.st78{clip-path:url(#SVGID_18_);fill:#C28D5A;}
	.st79{clip-path:url(#SVGID_18_);fill:#C08C59;}
	.st80{clip-path:url(#SVGID_18_);fill:#BF8A58;}
	.st81{clip-path:url(#SVGID_18_);fill:#BE8957;}
	.st82{clip-path:url(#SVGID_18_);fill:#BD8856;}
	.st83{clip-path:url(#SVGID_18_);fill:#BB8755;}
	.st84{clip-path:url(#SVGID_18_);fill:#BA8553;}
	.st85{clip-path:url(#SVGID_18_);fill:#B98452;}
	.st86{clip-path:url(#SVGID_18_);fill:#B88351;}
	.st87{clip-path:url(#SVGID_18_);fill:#E4B079;}
	.st88{clip-path:url(#SVGID_18_);fill:#E2AF78;}
	.st89{clip-path:url(#SVGID_18_);fill:#B68250;}
	.st90{clip-path:url(#SVGID_18_);fill:#B5804F;}
	.st91{clip-path:url(#SVGID_20_);fill:#E4B079;}
	.st92{clip-path:url(#SVGID_20_);fill:#E2AF78;}
	.st93{clip-path:url(#SVGID_20_);fill:#E1AD76;}
	.st94{clip-path:url(#SVGID_20_);fill:#E0AC75;}
	.st95{clip-path:url(#SVGID_20_);fill:#DEAB74;}
	.st96{clip-path:url(#SVGID_20_);fill:#DDA973;}
	.st97{clip-path:url(#SVGID_20_);fill:#DCA871;}
	.st98{clip-path:url(#SVGID_20_);fill:#DAA670;}
	.st99{clip-path:url(#SVGID_20_);fill:#D9A56F;}
	.st100{clip-path:url(#SVGID_20_);fill:#D7A36D;}
	.st101{clip-path:url(#SVGID_20_);fill:#D6A26C;}
	.st102{clip-path:url(#SVGID_20_);fill:#D5A06B;}
	.st103{clip-path:url(#SVGID_20_);fill:#D39F6A;}
	.st104{clip-path:url(#SVGID_20_);fill:#D29E68;}
	.st105{clip-path:url(#SVGID_20_);fill:#D09C67;}
	.st106{clip-path:url(#SVGID_20_);fill:#CF9B66;}
	.st107{clip-path:url(#SVGID_20_);fill:#CE9965;}
	.st108{clip-path:url(#SVGID_20_);fill:#CC9863;}
	.st109{clip-path:url(#SVGID_20_);fill:#CB9662;}
	.st110{clip-path:url(#SVGID_20_);fill:#CA9561;}
	.st111{clip-path:url(#SVGID_20_);fill:#C89460;}
	.st112{clip-path:url(#SVGID_20_);fill:#C7925F;}
	.st113{clip-path:url(#SVGID_20_);fill:#C6915E;}
	.st114{clip-path:url(#SVGID_20_);fill:#C4905C;}
	.st115{clip-path:url(#SVGID_20_);fill:#C38E5B;}
	.st116{clip-path:url(#SVGID_20_);fill:#C28D5A;}
	.st117{clip-path:url(#SVGID_20_);fill:#C08C59;}
	.st118{clip-path:url(#SVGID_20_);fill:#BF8A58;}
	.st119{clip-path:url(#SVGID_20_);fill:#BE8957;}
	.st120{clip-path:url(#SVGID_20_);fill:#BD8856;}
	.st121{clip-path:url(#SVGID_20_);fill:#BB8755;}
	.st122{clip-path:url(#SVGID_20_);fill:#BA8553;}
	.st123{clip-path:url(#SVGID_20_);fill:#B98452;}
	.st124{clip-path:url(#SVGID_20_);fill:#B88351;}
	.st125{clip-path:url(#SVGID_20_);fill:#B68250;}
	.st126{clip-path:url(#SVGID_20_);fill:#B5804F;}
	.st127{clip-path:url(#SVGID_22_);fill:#E2AF78;}
	.st128{clip-path:url(#SVGID_22_);fill:#E1AD76;}
	.st129{clip-path:url(#SVGID_22_);fill:#E0AC75;}
	.st130{clip-path:url(#SVGID_22_);fill:#DEAB74;}
	.st131{clip-path:url(#SVGID_22_);fill:#DDA973;}
	.st132{clip-path:url(#SVGID_22_);fill:#DCA871;}
	.st133{clip-path:url(#SVGID_22_);fill:#DAA670;}
	.st134{clip-path:url(#SVGID_22_);fill:#D9A56F;}
	.st135{clip-path:url(#SVGID_22_);fill:#D7A36D;}
	.st136{clip-path:url(#SVGID_22_);fill:#D6A26C;}
	.st137{clip-path:url(#SVGID_22_);fill:#D5A06B;}
	.st138{clip-path:url(#SVGID_22_);fill:#D39F6A;}
	.st139{clip-path:url(#SVGID_22_);fill:#D29E68;}
	.st140{clip-path:url(#SVGID_22_);fill:#D09C67;}
	.st141{clip-path:url(#SVGID_22_);fill:#CF9B66;}
	.st142{clip-path:url(#SVGID_22_);fill:#CE9965;}
	.st143{clip-path:url(#SVGID_22_);fill:#CC9863;}
	.st144{clip-path:url(#SVGID_22_);fill:#CB9662;}
	.st145{clip-path:url(#SVGID_22_);fill:#CA9561;}
	.st146{clip-path:url(#SVGID_22_);fill:#C89460;}
	.st147{clip-path:url(#SVGID_22_);fill:#C7925F;}
	.st148{clip-path:url(#SVGID_22_);fill:#C6915E;}
	.st149{clip-path:url(#SVGID_22_);fill:#C4905C;}
	.st150{clip-path:url(#SVGID_22_);fill:#C38E5B;}
	.st151{clip-path:url(#SVGID_22_);fill:#C28D5A;}
	.st152{clip-path:url(#SVGID_22_);fill:#C08C59;}
	.st153{clip-path:url(#SVGID_22_);fill:#BF8A58;}
	.st154{clip-path:url(#SVGID_22_);fill:#BE8957;}
	.st155{clip-path:url(#SVGID_22_);fill:#BD8856;}
	.st156{clip-path:url(#SVGID_22_);fill:#BB8755;}
	.st157{clip-path:url(#SVGID_22_);fill:#BA8553;}
	.st158{clip-path:url(#SVGID_22_);fill:#B98452;}
	.st159{clip-path:url(#SVGID_22_);fill:#B88351;}
	.st160{clip-path:url(#SVGID_22_);fill:#B68250;}
	.st161{clip-path:url(#SVGID_22_);fill:#E4B079;}
	.st162{clip-path:url(#SVGID_22_);fill:#B5804F;}
	.st163{clip-path:url(#SVGID_24_);fill:#E2AF78;}
	.st164{clip-path:url(#SVGID_24_);fill:#E1AD76;}
	.st165{clip-path:url(#SVGID_24_);fill:#E0AC75;}
	.st166{clip-path:url(#SVGID_24_);fill:#DEAB74;}
	.st167{clip-path:url(#SVGID_24_);fill:#DDA973;}
	.st168{clip-path:url(#SVGID_24_);fill:#DCA871;}
	.st169{clip-path:url(#SVGID_24_);fill:#DAA670;}
	.st170{clip-path:url(#SVGID_24_);fill:#D9A56F;}
	.st171{clip-path:url(#SVGID_24_);fill:#D7A36D;}
	.st172{clip-path:url(#SVGID_24_);fill:#D6A26C;}
	.st173{clip-path:url(#SVGID_24_);fill:#D5A06B;}
	.st174{clip-path:url(#SVGID_24_);fill:#D39F6A;}
	.st175{clip-path:url(#SVGID_24_);fill:#D29E68;}
	.st176{clip-path:url(#SVGID_24_);fill:#D09C67;}
	.st177{clip-path:url(#SVGID_24_);fill:#CF9B66;}
	.st178{clip-path:url(#SVGID_24_);fill:#CE9965;}
	.st179{clip-path:url(#SVGID_24_);fill:#CC9863;}
	.st180{clip-path:url(#SVGID_24_);fill:#CB9662;}
	.st181{clip-path:url(#SVGID_24_);fill:#CA9561;}
	.st182{clip-path:url(#SVGID_24_);fill:#C89460;}
	.st183{clip-path:url(#SVGID_24_);fill:#C7925F;}
	.st184{clip-path:url(#SVGID_24_);fill:#C6915E;}
	.st185{clip-path:url(#SVGID_24_);fill:#C4905C;}
	.st186{clip-path:url(#SVGID_24_);fill:#C38E5B;}
	.st187{clip-path:url(#SVGID_24_);fill:#C28D5A;}
	.st188{clip-path:url(#SVGID_24_);fill:#C08C59;}
	.st189{clip-path:url(#SVGID_24_);fill:#BF8A58;}
	.st190{clip-path:url(#SVGID_24_);fill:#BE8957;}
	.st191{clip-path:url(#SVGID_24_);fill:#BD8856;}
	.st192{clip-path:url(#SVGID_24_);fill:#BB8755;}
	.st193{clip-path:url(#SVGID_24_);fill:#BA8553;}
	.st194{clip-path:url(#SVGID_24_);fill:#B98452;}
	.st195{clip-path:url(#SVGID_24_);fill:#B88351;}
	.st196{clip-path:url(#SVGID_24_);fill:#B68250;}
	.st197{clip-path:url(#SVGID_24_);fill:#E4B079;}
	.st198{clip-path:url(#SVGID_24_);fill:#B5804F;}
	.st199{clip-path:url(#SVGID_26_);fill:#E1AD76;}
	.st200{clip-path:url(#SVGID_26_);fill:#E0AC75;}
	.st201{clip-path:url(#SVGID_26_);fill:#DEAB74;}
	.st202{clip-path:url(#SVGID_26_);fill:#DDA973;}
	.st203{clip-path:url(#SVGID_26_);fill:#DCA871;}
	.st204{clip-path:url(#SVGID_26_);fill:#DAA670;}
	.st205{clip-path:url(#SVGID_26_);fill:#D9A56F;}
	.st206{clip-path:url(#SVGID_26_);fill:#D7A36D;}
	.st207{clip-path:url(#SVGID_26_);fill:#D6A26C;}
	.st208{clip-path:url(#SVGID_26_);fill:#D5A06B;}
	.st209{clip-path:url(#SVGID_26_);fill:#D39F6A;}
	.st210{clip-path:url(#SVGID_26_);fill:#D29E68;}
	.st211{clip-path:url(#SVGID_26_);fill:#D09C67;}
	.st212{clip-path:url(#SVGID_26_);fill:#CF9B66;}
	.st213{clip-path:url(#SVGID_26_);fill:#CE9965;}
	.st214{clip-path:url(#SVGID_26_);fill:#CC9863;}
	.st215{clip-path:url(#SVGID_26_);fill:#CB9662;}
	.st216{clip-path:url(#SVGID_26_);fill:#CA9561;}
	.st217{clip-path:url(#SVGID_26_);fill:#C89460;}
	.st218{clip-path:url(#SVGID_26_);fill:#C7925F;}
	.st219{clip-path:url(#SVGID_26_);fill:#C6915E;}
	.st220{clip-path:url(#SVGID_26_);fill:#C4905C;}
	.st221{clip-path:url(#SVGID_26_);fill:#C38E5B;}
	.st222{clip-path:url(#SVGID_26_);fill:#C28D5A;}
	.st223{clip-path:url(#SVGID_26_);fill:#C08C59;}
	.st224{clip-path:url(#SVGID_26_);fill:#BF8A58;}
	.st225{clip-path:url(#SVGID_26_);fill:#BE8957;}
	.st226{clip-path:url(#SVGID_26_);fill:#BD8856;}
	.st227{clip-path:url(#SVGID_26_);fill:#BB8755;}
	.st228{clip-path:url(#SVGID_26_);fill:#BA8553;}
	.st229{clip-path:url(#SVGID_26_);fill:#B98452;}
	.st230{clip-path:url(#SVGID_26_);fill:#B88351;}
	.st231{clip-path:url(#SVGID_26_);fill:#E4B079;}
	.st232{clip-path:url(#SVGID_26_);fill:#E2AF78;}
	.st233{clip-path:url(#SVGID_26_);fill:#B68250;}
	.st234{clip-path:url(#SVGID_26_);fill:#B5804F;}
	.st235{clip-path:url(#SVGID_28_);fill:#E4B079;}
	.st236{clip-path:url(#SVGID_28_);fill:#E2AF78;}
	.st237{clip-path:url(#SVGID_28_);fill:#E1AD76;}
	.st238{clip-path:url(#SVGID_28_);fill:#E0AC75;}
	.st239{clip-path:url(#SVGID_28_);fill:#DEAB74;}
	.st240{clip-path:url(#SVGID_28_);fill:#DDA973;}
	.st241{clip-path:url(#SVGID_28_);fill:#DCA871;}
	.st242{clip-path:url(#SVGID_28_);fill:#DAA670;}
	.st243{clip-path:url(#SVGID_28_);fill:#D9A56F;}
	.st244{clip-path:url(#SVGID_28_);fill:#D7A36D;}
	.st245{clip-path:url(#SVGID_28_);fill:#D6A26C;}
	.st246{clip-path:url(#SVGID_28_);fill:#D5A06B;}
	.st247{clip-path:url(#SVGID_28_);fill:#D39F6A;}
	.st248{clip-path:url(#SVGID_28_);fill:#D29E68;}
	.st249{clip-path:url(#SVGID_28_);fill:#D09C67;}
	.st250{clip-path:url(#SVGID_28_);fill:#CF9B66;}
	.st251{clip-path:url(#SVGID_28_);fill:#CE9965;}
	.st252{clip-path:url(#SVGID_28_);fill:#CC9863;}
	.st253{clip-path:url(#SVGID_28_);fill:#CB9662;}
	.st254{clip-path:url(#SVGID_28_);fill:#CA9561;}
	.st255{clip-path:url(#SVGID_28_);fill:#C89460;}
	.st256{clip-path:url(#SVGID_28_);fill:#C7925F;}
	.st257{clip-path:url(#SVGID_28_);fill:#C6915E;}
	.st258{clip-path:url(#SVGID_28_);fill:#C4905C;}
	.st259{clip-path:url(#SVGID_28_);fill:#C38E5B;}
	.st260{clip-path:url(#SVGID_28_);fill:#C28D5A;}
	.st261{clip-path:url(#SVGID_28_);fill:#C08C59;}
	.st262{clip-path:url(#SVGID_28_);fill:#BF8A58;}
	.st263{clip-path:url(#SVGID_28_);fill:#BE8957;}
	.st264{clip-path:url(#SVGID_28_);fill:#BD8856;}
	.st265{clip-path:url(#SVGID_28_);fill:#BB8755;}
	.st266{clip-path:url(#SVGID_28_);fill:#BA8553;}
	.st267{clip-path:url(#SVGID_28_);fill:#B98452;}
	.st268{clip-path:url(#SVGID_28_);fill:#B88351;}
	.st269{clip-path:url(#SVGID_28_);fill:#B68250;}
	.st270{clip-path:url(#SVGID_28_);fill:#B5804F;}
	.st271{clip-path:url(#SVGID_30_);fill:#E2AF78;}
	.st272{clip-path:url(#SVGID_30_);fill:#E1AD76;}
	.st273{clip-path:url(#SVGID_30_);fill:#E0AC75;}
	.st274{clip-path:url(#SVGID_30_);fill:#DEAB74;}
	.st275{clip-path:url(#SVGID_30_);fill:#DDA973;}
	.st276{clip-path:url(#SVGID_30_);fill:#DCA871;}
	.st277{clip-path:url(#SVGID_30_);fill:#DAA670;}
	.st278{clip-path:url(#SVGID_30_);fill:#D9A56F;}
	.st279{clip-path:url(#SVGID_30_);fill:#D7A36D;}
	.st280{clip-path:url(#SVGID_30_);fill:#D6A26C;}
	.st281{clip-path:url(#SVGID_30_);fill:#D5A06B;}
	.st282{clip-path:url(#SVGID_30_);fill:#D39F6A;}
	.st283{clip-path:url(#SVGID_30_);fill:#D29E68;}
	.st284{clip-path:url(#SVGID_30_);fill:#D09C67;}
	.st285{clip-path:url(#SVGID_30_);fill:#CF9B66;}
	.st286{clip-path:url(#SVGID_30_);fill:#CE9965;}
	.st287{clip-path:url(#SVGID_30_);fill:#CC9863;}
	.st288{clip-path:url(#SVGID_30_);fill:#CB9662;}
	.st289{clip-path:url(#SVGID_30_);fill:#CA9561;}
	.st290{clip-path:url(#SVGID_30_);fill:#C89460;}
	.st291{clip-path:url(#SVGID_30_);fill:#C7925F;}
	.st292{clip-path:url(#SVGID_30_);fill:#C6915E;}
	.st293{clip-path:url(#SVGID_30_);fill:#C4905C;}
	.st294{clip-path:url(#SVGID_30_);fill:#C38E5B;}
	.st295{clip-path:url(#SVGID_30_);fill:#C28D5A;}
	.st296{clip-path:url(#SVGID_30_);fill:#C08C59;}
	.st297{clip-path:url(#SVGID_30_);fill:#BF8A58;}
	.st298{clip-path:url(#SVGID_30_);fill:#BE8957;}
	.st299{clip-path:url(#SVGID_30_);fill:#BD8856;}
	.st300{clip-path:url(#SVGID_30_);fill:#BB8755;}
	.st301{clip-path:url(#SVGID_30_);fill:#BA8553;}
	.st302{clip-path:url(#SVGID_30_);fill:#B98452;}
	.st303{clip-path:url(#SVGID_30_);fill:#B88351;}
	.st304{clip-path:url(#SVGID_30_);fill:#B68250;}
	.st305{clip-path:url(#SVGID_30_);fill:#E4B079;}
	.st306{clip-path:url(#SVGID_30_);fill:#B5804F;}
</style>
<radialGradient id="SVGID_1_" cx="146.6418" cy="-123.545" r="101.4643" gradientTransform="matrix(1.0353 0 0 1.0545 -31.3475 6.7386)" gradientUnits="userSpaceOnUse">
	<stop  offset="0" style="stop-color:#0E3249"/>
	<stop  offset="1" style="stop-color:#11263C"/>
</radialGradient>
<rect x="-4.3" y="-205.8" class="st0" width="249.4" height="164.4"/>
<rect x="14.5" y="-113.3" style="fill:none;" width="214.2" height="14"/>
<text transform="matrix(1 0 0 0.9 74.6412 -108.4064)"><tspan x="0" y="0" class="st1" style="font-family:'PlayfairDisplaySC-Bold'; font-size:8px;">CORPORATE FINANCE</tspan><tspan x="18.7" y="8.9" class="st1" style="font-family:'PlayfairDisplaySC-Bold'; font-size:8px;">CONSULTING</tspan></text>
<rect x="-3.1" y="-95.2" style="fill:none;" width="249.4" height="10.3"/>
<text transform="matrix(1 0 0 1 98.9646 -91.4035)" class="st1" style="font-family:'Avenir-Light'; font-size:5px;">ŁUKASZ ŁOZIŃSKI</text>
<g>
	<g>
		<linearGradient id="SVGID_2_" gradientUnits="userSpaceOnUse" x1="118.52" y1="-146.1985" x2="130.0679" y2="-146.1985">
			<stop  offset="0" style="stop-color:#E4B079"/>
			<stop  offset="1" style="stop-color:#B5804F"/>
		</linearGradient>
		<path class="st2" d="M125-139.4h-4.4l-2.1-13.7l2.3,2.2l-0.7,1.5l1.5,3.6l1.5-3.6l-0.7-1.5l2.2-2.2l1.3,2.9l-1.2,1.1v4l2.8-2.6
			l-0.4-2.4l3-0.2L125-139.4z M120.9-139.7h3.9l4.8-10.3l-2.1,0.1l0.4,2.2l-3.4,3.2v-4.8l1.1-1l-1-2.2l-1.7,1.7l0.7,1.4l0,0.1
			l-1.8,4.3l-1.9-4.4l0.7-1.4l-1.4-1.4L120.9-139.7z"/>
	</g>
	<g>
		<path class="st1" d="M131.3-121h-13.8v-4.9h13.8V-121z M117.8-121.3H131v-4.3h-13.2V-121.3z"/>
	</g>
	<g>
		<path class="st1" d="M122.3-142.8l-0.9-2.6l1.7-4l-0.7-1.5l2.2-2.2l0.1,0.3l0,0.1c-0.5,2.1-2.3,9.2-2.3,9.3L122.3-142.8z
			 M121.8-145.4l0.5,1.5c0.4-1.6,1.5-6.3,2.1-8.3l-1.6,1.5l0.7,1.4L121.8-145.4z"/>
	</g>
	<g>
		<linearGradient id="SVGID_3_" gradientUnits="userSpaceOnUse" x1="117.3914" y1="-120.6158" x2="112.2731" y2="-126.2729">
			<stop  offset="0" style="stop-color:#E4B079"/>
			<stop  offset="1" style="stop-color:#B5804F"/>
		</linearGradient>
		<path class="st3" d="M117.8-121h-5.9v-4.9h5.9V-121z M112.2-121.3h5.3v-4.3h-5.3V-121.3z"/>
	</g>
	<g>
		<linearGradient id="SVGID_4_" gradientUnits="userSpaceOnUse" x1="111.3988" y1="-141.2245" x2="125.1986" y2="-138.6575">
			<stop  offset="0" style="stop-color:#E4B079"/>
			<stop  offset="1" style="stop-color:#B5804F"/>
		</linearGradient>
		<path class="st4" d="M119.9-127.3h-4.3l2.5-12.1l-5-10.9l3,0.2l-0.4,2.4l2.8,2.6v-4l-1.2-1.1l1.3-2.9l0.4,0.3l0,0.1l2,13h4.3
			l-0.1,0.3l0.2,0.8l-3.5,1.5L119.9-127.3z M116-127.6h3.7l1.8-9.8l3.4-1.5l-0.1-0.5h-4.1l-2-13.1l-1,2.2l1.1,1v4.8l-3.4-3.2
			l0.4-2.2l-2.1-0.1l4.9,10.5L116-127.6z"/>
	</g>
	<g>
		<linearGradient id="SVGID_5_" gradientUnits="userSpaceOnUse" x1="119.5977" y1="-133.1453" x2="127.5347" y2="-133.1453">
			<stop  offset="0" style="stop-color:#E4B079"/>
			<stop  offset="1" style="stop-color:#B5804F"/>
		</linearGradient>
		<path class="st5" d="M127.5-127.3h-7.9l1.8-10.1l3.7-1.6L127.5-127.3z M120-127.6h7.2l-2.3-10.9l-3.2,1.4L120-127.6z"/>
	</g>
</g>
<g>
	<path class="st1" d="M59,89.3c0.3,0.1,0.6,0.3,0.9,0.5c0.1,0.1,0.1,0.1,0.2,0.1c0.1,0,0.2-0.2,0.3-0.6h0.2c0,0.4,0,1.2,0,2.3h-0.2
		c0-0.3-0.1-0.6-0.1-0.8c-0.1-0.2-0.1-0.4-0.2-0.5s-0.2-0.3-0.4-0.4c-0.2-0.2-0.4-0.3-0.6-0.3c-0.2-0.1-0.5-0.1-0.7-0.1
		c-0.5,0-0.9,0.2-1.2,0.4c-0.3,0.3-0.5,0.7-0.7,1.2c-0.1,0.5-0.2,1-0.2,1.6c0,0.6,0.1,1.1,0.2,1.6c0.2,0.5,0.4,0.9,0.7,1.2
		c0.3,0.3,0.7,0.4,1.2,0.4c0.2,0,0.5,0,0.7-0.1c0.2-0.1,0.4-0.2,0.6-0.3c0.2-0.1,0.3-0.3,0.4-0.4c0.1-0.2,0.2-0.4,0.2-0.6
		c0.1-0.2,0.1-0.5,0.1-0.8h0.2c0,1.1,0,1.9,0,2.4h-0.2c0-0.2-0.1-0.3-0.1-0.4s-0.1-0.1-0.2-0.1c-0.1,0-0.1,0-0.2,0.1
		c-0.2,0.1-0.4,0.2-0.6,0.3c-0.2,0.1-0.4,0.2-0.6,0.2c-0.2,0.1-0.5,0.1-0.8,0.1c-0.7,0-1.4-0.1-2-0.4c-0.6-0.3-1-0.7-1.3-1.2
		c-0.3-0.5-0.5-1.1-0.5-1.8c0-0.7,0.2-1.3,0.5-1.8c0.3-0.5,0.8-1,1.3-1.2c0.6-0.3,1.2-0.4,1.9-0.4C58.3,89.2,58.7,89.2,59,89.3z"/>
	<path class="st1" d="M67.8,89.6c0.6,0.3,1,0.7,1.3,1.2c0.3,0.5,0.5,1.1,0.5,1.8c0,0.7-0.2,1.3-0.5,1.8c-0.3,0.5-0.8,1-1.3,1.2
		c-0.6,0.3-1.2,0.4-1.9,0.4c-0.7,0-1.4-0.1-2-0.4c-0.6-0.3-1-0.7-1.3-1.2c-0.3-0.5-0.5-1.1-0.5-1.8c0-0.7,0.2-1.3,0.5-1.8
		c0.3-0.5,0.8-1,1.3-1.2c0.6-0.3,1.2-0.4,1.9-0.4C66.6,89.2,67.2,89.3,67.8,89.6z M64.8,89.8c-0.3,0.3-0.5,0.7-0.7,1.2
		c-0.2,0.5-0.2,1.1-0.2,1.7c0,0.7,0.1,1.2,0.3,1.7c0.2,0.5,0.4,0.9,0.7,1.2c0.3,0.3,0.6,0.4,1,0.4c0.4,0,0.7-0.1,1-0.4
		c0.3-0.3,0.5-0.7,0.7-1.2c0.2-0.5,0.2-1.1,0.2-1.7c0-0.7-0.1-1.2-0.3-1.7c-0.2-0.5-0.4-0.9-0.7-1.2c-0.3-0.3-0.6-0.4-1-0.4
		C65.4,89.3,65.1,89.5,64.8,89.8z"/>
	<path class="st1" d="M77.3,96c-0.2,0.1-0.5,0.1-0.8,0.1c-0.4,0-0.7-0.1-1-0.2c-0.2-0.2-0.4-0.4-0.5-0.8l-0.2-0.9
		c-0.1-0.3-0.1-0.6-0.2-0.7c-0.1-0.2-0.2-0.3-0.3-0.4c-0.1-0.1-0.3-0.2-0.5-0.2h-0.7V95c0,0.2,0,0.4,0.1,0.5c0,0.1,0.1,0.2,0.2,0.2
		c0.1,0,0.3,0.1,0.5,0.1V96c-0.4,0-0.9,0-1.6,0c-0.7,0-1.3,0-1.7,0v-0.2c0.2,0,0.4,0,0.5-0.1c0.1,0,0.2-0.1,0.2-0.2
		c0-0.1,0.1-0.3,0.1-0.5v-4.7c0-0.2,0-0.4-0.1-0.5c0-0.1-0.1-0.2-0.2-0.2c-0.1,0-0.3-0.1-0.5-0.1v-0.2c0.4,0,0.9,0,1.6,0
		c0.1,0,0.5,0,1.2,0l0.5,0c1,0,1.7,0.1,2.2,0.4c0.5,0.3,0.7,0.7,0.7,1.2c0,0.3-0.1,0.6-0.2,0.8c-0.1,0.3-0.4,0.5-0.7,0.7
		c-0.4,0.2-0.8,0.3-1.4,0.4h0c0.4,0,0.8,0.1,1,0.2c0.3,0.1,0.5,0.2,0.6,0.4c0.2,0.2,0.3,0.4,0.3,0.7l0.2,1c0.1,0.3,0.1,0.4,0.2,0.5
		c0.1,0.1,0.2,0.1,0.3,0.1c0.1,0,0.2,0,0.2-0.1c0.1,0,0.1-0.1,0.2-0.2l0.1,0.1C77.7,95.8,77.5,95.9,77.3,96z M73.5,89.6
		c-0.1,0-0.2,0.1-0.2,0.2c0,0.1-0.1,0.3-0.1,0.5v2.3h0.5c0.4,0,0.7-0.1,0.9-0.2c0.2-0.1,0.4-0.3,0.5-0.5c0.1-0.2,0.1-0.5,0.1-0.8
		c0-0.5-0.1-0.9-0.3-1.2c-0.2-0.3-0.5-0.4-1-0.4C73.7,89.5,73.6,89.5,73.5,89.6z"/>
	<path class="st1" d="M81,95c0,0.3,0,0.4,0.1,0.6s0.2,0.2,0.3,0.2c0.2,0,0.4,0.1,0.7,0.1V96c-0.6,0-1.2,0-1.9,0c-0.5,0-1.1,0-1.7,0
		v-0.2c0.2,0,0.4,0,0.5-0.1c0.1,0,0.2-0.1,0.2-0.2c0-0.1,0.1-0.3,0.1-0.5v-4.7c0-0.2,0-0.4-0.1-0.5c0-0.1-0.1-0.2-0.2-0.2
		c-0.1,0-0.3-0.1-0.5-0.1v-0.2c0.4,0,0.9,0,1.6,0c0.1,0,0.5,0,1.2,0l0.5,0c0.6,0,1.2,0.1,1.6,0.2c0.4,0.2,0.8,0.4,1,0.7
		c0.2,0.3,0.3,0.6,0.3,1c0,0.3-0.1,0.7-0.3,1c-0.2,0.3-0.5,0.6-1,0.8c-0.5,0.2-1.1,0.3-1.9,0.3H81V95z M81.3,89.6
		c-0.1,0-0.2,0.1-0.2,0.2S81,90.1,81,90.3v2.8h0.5c0.6,0,1-0.2,1.2-0.5c0.2-0.3,0.3-0.8,0.3-1.3c0-0.6-0.1-1.1-0.3-1.4
		s-0.5-0.4-1-0.4C81.5,89.5,81.4,89.5,81.3,89.6z"/>
	<path class="st1" d="M91.6,89.6c0.6,0.3,1,0.7,1.3,1.2c0.3,0.5,0.5,1.1,0.5,1.8c0,0.7-0.2,1.3-0.5,1.8c-0.3,0.5-0.8,1-1.3,1.2
		c-0.6,0.3-1.2,0.4-1.9,0.4c-0.7,0-1.4-0.1-2-0.4c-0.6-0.3-1-0.7-1.3-1.2c-0.3-0.5-0.5-1.1-0.5-1.8c0-0.7,0.2-1.3,0.5-1.8
		c0.3-0.5,0.8-1,1.3-1.2c0.6-0.3,1.2-0.4,1.9-0.4C90.4,89.2,91.1,89.3,91.6,89.6z M88.6,89.8c-0.3,0.3-0.5,0.7-0.7,1.2
		c-0.2,0.5-0.2,1.1-0.2,1.7c0,0.7,0.1,1.2,0.3,1.7c0.2,0.5,0.4,0.9,0.7,1.2c0.3,0.3,0.6,0.4,1,0.4c0.4,0,0.7-0.1,1-0.4
		c0.3-0.3,0.5-0.7,0.7-1.2c0.2-0.5,0.2-1.1,0.2-1.7c0-0.7-0.1-1.2-0.3-1.7c-0.2-0.5-0.4-0.9-0.7-1.2c-0.3-0.3-0.6-0.4-1-0.4
		C89.2,89.3,88.9,89.5,88.6,89.8z"/>
	<path class="st1" d="M101.1,96c-0.2,0.1-0.5,0.1-0.8,0.1c-0.4,0-0.7-0.1-1-0.2c-0.2-0.2-0.4-0.4-0.5-0.8l-0.2-0.9
		c-0.1-0.3-0.1-0.6-0.2-0.7c-0.1-0.2-0.2-0.3-0.3-0.4c-0.1-0.1-0.3-0.2-0.5-0.2h-0.7V95c0,0.2,0,0.4,0.1,0.5c0,0.1,0.1,0.2,0.2,0.2
		c0.1,0,0.3,0.1,0.5,0.1V96c-0.4,0-0.9,0-1.6,0c-0.7,0-1.3,0-1.7,0v-0.2c0.2,0,0.4,0,0.5-0.1c0.1,0,0.2-0.1,0.2-0.2
		c0-0.1,0.1-0.3,0.1-0.5v-4.7c0-0.2,0-0.4-0.1-0.5c0-0.1-0.1-0.2-0.2-0.2c-0.1,0-0.3-0.1-0.5-0.1v-0.2c0.4,0,0.9,0,1.6,0
		c0.1,0,0.5,0,1.2,0l0.5,0c1,0,1.7,0.1,2.2,0.4c0.5,0.3,0.7,0.7,0.7,1.2c0,0.3-0.1,0.6-0.2,0.8c-0.1,0.3-0.4,0.5-0.7,0.7
		c-0.4,0.2-0.8,0.3-1.4,0.4h0c0.4,0,0.8,0.1,1,0.2c0.3,0.1,0.5,0.2,0.6,0.4c0.2,0.2,0.3,0.4,0.3,0.7l0.2,1c0.1,0.3,0.1,0.4,0.2,0.5
		c0.1,0.1,0.2,0.1,0.3,0.1c0.1,0,0.2,0,0.2-0.1c0.1,0,0.1-0.1,0.2-0.2l0.1,0.1C101.6,95.8,101.4,95.9,101.1,96z M97.3,89.6
		c-0.1,0-0.2,0.1-0.2,0.2c0,0.1-0.1,0.3-0.1,0.5v2.3h0.5c0.4,0,0.7-0.1,0.9-0.2c0.2-0.1,0.4-0.3,0.5-0.5c0.1-0.2,0.1-0.5,0.1-0.8
		c0-0.5-0.1-0.9-0.3-1.2c-0.2-0.3-0.5-0.4-1-0.4C97.5,89.5,97.4,89.5,97.3,89.6z"/>
	<path class="st1" d="M108.8,95.7c0.1,0.1,0.2,0.1,0.4,0.2V96c-0.4,0-0.9,0-1.6,0c-0.7,0-1.3,0-1.6,0v-0.2c0.3,0,0.5,0,0.6-0.1
		s0.2-0.1,0.2-0.3c0-0.1,0-0.3-0.1-0.4l-0.6-1.6h-2.3l-0.3,0.7c-0.2,0.4-0.3,0.8-0.3,1c0,0.2,0.1,0.4,0.2,0.5
		c0.2,0.1,0.4,0.1,0.7,0.2V96c-0.5,0-0.9,0-1.3,0c-0.3,0-0.6,0-0.8,0v-0.2c0.4-0.1,0.7-0.4,0.9-1l2.4-5.5c0.1,0,0.2,0,0.4,0
		s0.3,0,0.4,0l2.6,5.9C108.6,95.4,108.7,95.6,108.8,95.7z M104.8,90.7l-1.1,2.5h2.1L104.8,90.7z"/>
	<path class="st1" d="M115.6,90.9c0,0.3,0,0.5,0,0.7h-0.2c-0.1-0.5-0.3-0.9-0.4-1.3c-0.2-0.3-0.4-0.5-0.6-0.7
		c-0.2-0.1-0.5-0.2-0.9-0.2h-0.2v5.4c0,0.3,0,0.5,0.1,0.6c0.1,0.1,0.2,0.2,0.3,0.2c0.2,0,0.4,0.1,0.7,0.1V96c-0.6,0-1.3,0-2,0
		c-0.7,0-1.4,0-1.9,0v-0.2c0.3,0,0.6,0,0.7-0.1c0.2,0,0.3-0.1,0.3-0.2c0.1-0.1,0.1-0.3,0.1-0.6v-5.4h-0.2c-0.3,0-0.6,0.1-0.9,0.2
		c-0.2,0.1-0.4,0.4-0.6,0.7c-0.2,0.3-0.3,0.7-0.4,1.3h-0.2c0-0.2,0-0.4,0-0.7c0-0.5,0-1-0.1-1.6c0.6,0,1.7,0,3.2,0
		c1.5,0,2.6,0,3.2,0C115.6,89.9,115.6,90.4,115.6,90.9z"/>
	<path class="st1" d="M122.6,96c-0.5,0-1.3,0-2.4,0c-1.5,0-2.7,0-3.4,0v-0.2c0.2,0,0.4,0,0.5-0.1c0.1,0,0.2-0.1,0.2-0.2
		c0-0.1,0.1-0.3,0.1-0.5v-4.7c0-0.2,0-0.4-0.1-0.5c0-0.1-0.1-0.2-0.2-0.2c-0.1,0-0.3-0.1-0.5-0.1v-0.2c0.8,0,1.9,0,3.4,0
		c1,0,1.8,0,2.2,0c0,0.5-0.1,1-0.1,1.4c0,0.3,0,0.5,0,0.6h-0.2c-0.1-0.5-0.2-0.8-0.3-1.1s-0.3-0.5-0.6-0.6c-0.2-0.1-0.5-0.2-0.8-0.2
		H120c-0.2,0-0.4,0-0.5,0c-0.1,0-0.2,0.1-0.2,0.2s-0.1,0.2-0.1,0.4v2.3h0.3c0.4,0,0.7-0.1,0.9-0.4c0.2-0.2,0.3-0.5,0.4-0.9h0.2
		c0,0.3,0,0.6,0,0.9l0,0.5c0,0.3,0,0.8,0.1,1.3h-0.2c-0.1-0.8-0.6-1.3-1.3-1.3h-0.3v2.4c0,0.2,0,0.4,0.1,0.4c0,0.1,0.1,0.2,0.2,0.2
		c0.1,0,0.3,0,0.5,0h0.5c0.3,0,0.6-0.1,0.9-0.2c0.2-0.1,0.4-0.3,0.6-0.6c0.2-0.3,0.3-0.7,0.4-1.2h0.2c0,0.2,0,0.5,0,0.8
		C122.5,95.1,122.6,95.6,122.6,96z"/>
	<path class="st1" d="M132.5,90.7c0,0.3,0,0.5,0,0.7h-0.2c-0.1-0.5-0.2-0.9-0.4-1.2c-0.2-0.3-0.3-0.5-0.6-0.6
		c-0.2-0.1-0.5-0.2-0.9-0.2h-0.3c-0.2,0-0.4,0-0.5,0c-0.1,0-0.2,0.1-0.2,0.2c0,0.1-0.1,0.2-0.1,0.4v2.4h0.4c0.4,0,0.7-0.1,0.9-0.4
		c0.2-0.2,0.3-0.5,0.4-0.9h0.2c0,0.4,0,0.7,0,0.9l0,0.4c0,0.3,0,0.8,0.1,1.3h-0.2c-0.1-0.8-0.6-1.2-1.3-1.2h-0.4V95
		c0,0.3,0,0.4,0.1,0.6s0.2,0.2,0.3,0.2c0.2,0,0.4,0.1,0.7,0.1V96c-0.6,0-1.2,0-1.9,0c-0.5,0-1.1,0-1.7,0v-0.2c0.2,0,0.4,0,0.5-0.1
		c0.1,0,0.2-0.1,0.2-0.2c0-0.1,0.1-0.3,0.1-0.5v-4.7c0-0.2,0-0.4-0.1-0.5c0-0.1-0.1-0.2-0.2-0.2c-0.1,0-0.3-0.1-0.5-0.1v-0.2
		c0.8,0,1.9,0,3.4,0c1,0,1.8,0,2.2,0C132.5,89.8,132.5,90.3,132.5,90.7z"/>
	<path class="st1" d="M136.4,89.6c-0.1,0-0.2,0.1-0.2,0.2s-0.1,0.3-0.1,0.5V95c0,0.2,0,0.4,0.1,0.5s0.1,0.2,0.2,0.2
		c0.1,0,0.3,0.1,0.5,0.1V96c-0.4,0-0.9,0-1.6,0c-0.7,0-1.3,0-1.7,0v-0.2c0.2,0,0.4,0,0.5-0.1c0.1,0,0.2-0.1,0.2-0.2
		c0-0.1,0.1-0.3,0.1-0.5v-4.7c0-0.2,0-0.4-0.1-0.5c0-0.1-0.1-0.2-0.2-0.2c-0.1,0-0.3-0.1-0.5-0.1v-0.2c0.4,0,0.9,0,1.7,0
		c0.7,0,1.2,0,1.6,0v0.2C136.7,89.5,136.5,89.5,136.4,89.6z"/>
	<path class="st1" d="M144.6,89.7c-0.1,0.1-0.2,0.2-0.2,0.4c0,0.2-0.1,0.4-0.1,0.7V96c-0.1,0-0.1,0-0.3,0c-0.1,0-0.2,0-0.3,0
		l-4.6-5.2v3.6c0,0.4,0,0.7,0.1,0.8c0,0.2,0.1,0.3,0.3,0.4c0.1,0.1,0.4,0.1,0.7,0.2V96c-0.3,0-0.7,0-1.1,0c-0.4,0-0.7,0-0.9,0v-0.2
		c0.2,0,0.4-0.1,0.5-0.2c0.1-0.1,0.2-0.2,0.2-0.4c0-0.2,0.1-0.4,0.1-0.7v-4.3c0-0.2,0-0.4-0.1-0.5s-0.1-0.2-0.2-0.2
		c-0.1,0-0.3-0.1-0.5-0.1v-0.2c0.2,0,0.5,0,0.9,0c0.4,0,0.7,0,0.9,0l4.1,4.5v-3c0-0.4,0-0.7-0.1-0.8c0-0.2-0.1-0.3-0.3-0.4
		c-0.1-0.1-0.4-0.1-0.7-0.2v-0.2c0.3,0,0.7,0,1.1,0c0.4,0,0.7,0,0.9,0v0.2C144.9,89.5,144.7,89.6,144.6,89.7z"/>
	<path class="st1" d="M152.5,95.7c0.1,0.1,0.2,0.1,0.4,0.2V96c-0.4,0-0.9,0-1.6,0c-0.7,0-1.3,0-1.6,0v-0.2c0.3,0,0.5,0,0.6-0.1
		s0.2-0.1,0.2-0.3c0-0.1,0-0.3-0.1-0.4l-0.6-1.6h-2.3l-0.3,0.7c-0.2,0.4-0.3,0.8-0.3,1c0,0.2,0.1,0.4,0.2,0.5
		c0.2,0.1,0.4,0.1,0.7,0.2V96c-0.5,0-0.9,0-1.3,0c-0.3,0-0.6,0-0.8,0v-0.2c0.4-0.1,0.7-0.4,0.9-1l2.4-5.5c0.1,0,0.2,0,0.4,0
		s0.3,0,0.4,0l2.6,5.9C152.3,95.4,152.4,95.6,152.5,95.7z M148.6,90.7l-1.1,2.5h2.1L148.6,90.7z"/>
	<path class="st1" d="M159.9,89.7c-0.1,0.1-0.2,0.2-0.2,0.4c0,0.2-0.1,0.4-0.1,0.7V96c-0.1,0-0.1,0-0.3,0c-0.1,0-0.2,0-0.3,0
		l-4.6-5.2v3.6c0,0.4,0,0.7,0.1,0.8c0,0.2,0.1,0.3,0.3,0.4c0.1,0.1,0.4,0.1,0.7,0.2V96c-0.3,0-0.7,0-1.1,0c-0.4,0-0.7,0-0.9,0v-0.2
		c0.2,0,0.4-0.1,0.5-0.2c0.1-0.1,0.2-0.2,0.2-0.4c0-0.2,0.1-0.4,0.1-0.7v-4.3c0-0.2,0-0.4-0.1-0.5c0-0.1-0.1-0.2-0.2-0.2
		c-0.1,0-0.3-0.1-0.5-0.1v-0.2c0.2,0,0.5,0,0.9,0c0.4,0,0.7,0,0.9,0l4.1,4.5v-3c0-0.4,0-0.7-0.1-0.8c0-0.2-0.1-0.3-0.3-0.4
		c-0.1-0.1-0.4-0.1-0.7-0.2v-0.2c0.3,0,0.7,0,1.1,0c0.4,0,0.7,0,0.9,0v0.2C160.2,89.5,160,89.6,159.9,89.7z"/>
	<path class="st1" d="M166.4,89.3c0.3,0.1,0.6,0.3,0.9,0.5c0.1,0.1,0.1,0.1,0.2,0.1c0.1,0,0.2-0.2,0.3-0.6h0.2c0,0.4,0,1.2,0,2.3
		h-0.2c0-0.3-0.1-0.6-0.1-0.8c-0.1-0.2-0.1-0.4-0.2-0.5s-0.2-0.3-0.4-0.4c-0.2-0.2-0.4-0.3-0.6-0.3s-0.5-0.1-0.7-0.1
		c-0.5,0-0.9,0.2-1.2,0.4c-0.3,0.3-0.5,0.7-0.7,1.2c-0.1,0.5-0.2,1-0.2,1.6c0,0.6,0.1,1.1,0.2,1.6c0.2,0.5,0.4,0.9,0.7,1.2
		c0.3,0.3,0.7,0.4,1.2,0.4c0.2,0,0.5,0,0.7-0.1c0.2-0.1,0.4-0.2,0.6-0.3c0.2-0.1,0.3-0.3,0.4-0.4s0.2-0.4,0.2-0.6
		c0.1-0.2,0.1-0.5,0.1-0.8h0.2c0,1.1,0,1.9,0,2.4h-0.2c0-0.2-0.1-0.3-0.1-0.4s-0.1-0.1-0.2-0.1c-0.1,0-0.1,0-0.2,0.1
		c-0.2,0.1-0.4,0.2-0.6,0.3c-0.2,0.1-0.4,0.2-0.6,0.2c-0.2,0.1-0.5,0.1-0.8,0.1c-0.7,0-1.4-0.1-2-0.4c-0.6-0.3-1-0.7-1.3-1.2
		c-0.3-0.5-0.5-1.1-0.5-1.8c0-0.7,0.2-1.3,0.5-1.8c0.3-0.5,0.8-1,1.3-1.2c0.6-0.3,1.2-0.4,1.9-0.4C165.8,89.2,166.1,89.2,166.4,89.3
		z"/>
	<path class="st1" d="M175.3,96c-0.5,0-1.3,0-2.4,0c-1.5,0-2.7,0-3.4,0v-0.2c0.2,0,0.4,0,0.5-0.1c0.1,0,0.2-0.1,0.2-0.2
		s0.1-0.3,0.1-0.5v-4.7c0-0.2,0-0.4-0.1-0.5s-0.1-0.2-0.2-0.2c-0.1,0-0.3-0.1-0.5-0.1v-0.2c0.8,0,1.9,0,3.4,0c1,0,1.8,0,2.2,0
		c0,0.5-0.1,1-0.1,1.4c0,0.3,0,0.5,0,0.6h-0.2c-0.1-0.5-0.2-0.8-0.3-1.1s-0.3-0.5-0.6-0.6c-0.2-0.1-0.5-0.2-0.8-0.2h-0.4
		c-0.2,0-0.4,0-0.5,0c-0.1,0-0.2,0.1-0.2,0.2c0,0.1-0.1,0.2-0.1,0.4v2.3h0.3c0.4,0,0.7-0.1,0.9-0.4c0.2-0.2,0.3-0.5,0.4-0.9h0.2
		c0,0.3,0,0.6,0,0.9l0,0.5c0,0.3,0,0.8,0.1,1.3h-0.2c-0.1-0.8-0.6-1.3-1.3-1.3h-0.3v2.4c0,0.2,0,0.4,0.1,0.4c0,0.1,0.1,0.2,0.2,0.2
		c0.1,0,0.3,0,0.5,0h0.5c0.3,0,0.6-0.1,0.9-0.2c0.2-0.1,0.4-0.3,0.6-0.6c0.2-0.3,0.3-0.7,0.4-1.2h0.2c0,0.2,0,0.5,0,0.8
		C175.2,95.1,175.3,95.6,175.3,96z"/>
	<path class="st1" d="M83.3,99.8c0.3,0.1,0.6,0.3,0.9,0.5c0.1,0.1,0.1,0.1,0.2,0.1c0.1,0,0.2-0.2,0.3-0.6h0.2c0,0.4,0,1.2,0,2.3
		h-0.2c0-0.3-0.1-0.6-0.1-0.8c-0.1-0.2-0.1-0.4-0.2-0.5c-0.1-0.2-0.2-0.3-0.4-0.4c-0.2-0.2-0.4-0.3-0.6-0.3
		c-0.2-0.1-0.5-0.1-0.7-0.1c-0.5,0-0.9,0.2-1.2,0.4c-0.3,0.3-0.5,0.7-0.7,1.2s-0.2,1-0.2,1.6c0,0.6,0.1,1.1,0.2,1.6
		c0.2,0.5,0.4,0.9,0.7,1.2c0.3,0.3,0.7,0.4,1.2,0.4c0.2,0,0.5,0,0.7-0.1c0.2-0.1,0.4-0.2,0.6-0.3c0.2-0.1,0.3-0.3,0.4-0.4
		c0.1-0.2,0.2-0.4,0.2-0.6s0.1-0.5,0.1-0.8h0.2c0,1.1,0,1.9,0,2.4h-0.2c0-0.2-0.1-0.3-0.1-0.4c0-0.1-0.1-0.1-0.2-0.1
		c-0.1,0-0.1,0-0.2,0.1c-0.2,0.1-0.4,0.2-0.6,0.3c-0.2,0.1-0.4,0.2-0.6,0.2c-0.2,0.1-0.5,0.1-0.8,0.1c-0.7,0-1.4-0.1-2-0.4
		c-0.6-0.3-1-0.7-1.3-1.2c-0.3-0.5-0.5-1.1-0.5-1.8c0-0.7,0.2-1.3,0.5-1.8c0.3-0.5,0.8-1,1.3-1.2c0.6-0.3,1.2-0.4,1.9-0.4
		C82.7,99.7,83.1,99.7,83.3,99.8z"/>
	<path class="st1" d="M92.2,100.1c0.6,0.3,1,0.7,1.3,1.2c0.3,0.5,0.5,1.1,0.5,1.8c0,0.7-0.2,1.3-0.5,1.8c-0.3,0.5-0.8,1-1.3,1.2
		c-0.6,0.3-1.2,0.4-1.9,0.4c-0.7,0-1.4-0.1-2-0.4c-0.6-0.3-1-0.7-1.3-1.2c-0.3-0.5-0.5-1.1-0.5-1.8c0-0.7,0.2-1.3,0.5-1.8
		c0.3-0.5,0.8-1,1.3-1.2c0.6-0.3,1.2-0.4,1.9-0.4C91,99.7,91.6,99.8,92.2,100.1z M89.2,100.3c-0.3,0.3-0.5,0.7-0.7,1.2
		c-0.2,0.5-0.2,1.1-0.2,1.7c0,0.7,0.1,1.2,0.3,1.7c0.2,0.5,0.4,0.9,0.7,1.2c0.3,0.3,0.6,0.4,1,0.4c0.4,0,0.7-0.1,1-0.4
		c0.3-0.3,0.5-0.7,0.7-1.2c0.2-0.5,0.2-1.1,0.2-1.7c0-0.7-0.1-1.2-0.3-1.7c-0.2-0.5-0.4-0.9-0.7-1.2c-0.3-0.3-0.6-0.4-1-0.4
		C89.8,99.9,89.5,100,89.2,100.3z"/>
	<path class="st1" d="M101.6,100.2c-0.1,0.1-0.2,0.2-0.2,0.4c0,0.2-0.1,0.4-0.1,0.7v5.3c-0.1,0-0.1,0-0.3,0c-0.1,0-0.2,0-0.3,0
		l-4.6-5.2v3.6c0,0.4,0,0.7,0.1,0.8c0,0.2,0.1,0.3,0.3,0.4c0.1,0.1,0.4,0.1,0.7,0.2v0.2c-0.3,0-0.7,0-1.1,0c-0.4,0-0.7,0-0.9,0v-0.2
		c0.2,0,0.4-0.1,0.5-0.2s0.2-0.2,0.2-0.4c0-0.2,0.1-0.4,0.1-0.7v-4.3c0-0.2,0-0.4-0.1-0.5c0-0.1-0.1-0.2-0.2-0.2
		c-0.1,0-0.3-0.1-0.5-0.1v-0.2c0.2,0,0.5,0,0.9,0c0.4,0,0.7,0,0.9,0l4.1,4.5v-3c0-0.4,0-0.7-0.1-0.8c0-0.2-0.1-0.3-0.3-0.4
		c-0.1-0.1-0.4-0.1-0.7-0.2v-0.2c0.3,0,0.7,0,1.1,0c0.4,0,0.7,0,0.9,0v0.2C101.9,100,101.7,100.1,101.6,100.2z"/>
	<path class="st1" d="M106.8,99.8c0.2,0.1,0.4,0.2,0.7,0.3c0.2,0.1,0.3,0.1,0.4,0.1c0.1,0,0.1,0,0.1-0.1c0-0.1,0.1-0.2,0.1-0.3h0.2
		c0,0.4-0.1,1.1-0.1,2.2H108c0-0.3-0.1-0.7-0.3-1c-0.1-0.3-0.3-0.6-0.6-0.7c-0.3-0.2-0.6-0.3-0.9-0.3c-0.2,0-0.4,0-0.6,0.1
		c-0.2,0.1-0.3,0.2-0.4,0.3c-0.1,0.1-0.1,0.3-0.1,0.5c0,0.2,0.1,0.4,0.2,0.6s0.3,0.3,0.5,0.5s0.5,0.3,0.9,0.6
		c0.1,0.1,0.2,0.1,0.3,0.2c0.4,0.2,0.7,0.5,1,0.6c0.2,0.2,0.4,0.4,0.6,0.6c0.1,0.2,0.2,0.5,0.2,0.8c0,0.4-0.1,0.7-0.3,1
		c-0.2,0.3-0.5,0.5-0.9,0.6c-0.4,0.1-0.8,0.2-1.3,0.2c-0.4,0-0.7,0-1-0.1c-0.3-0.1-0.5-0.1-0.7-0.3c-0.2-0.1-0.3-0.1-0.4-0.1
		c-0.1,0-0.1,0-0.1,0.1c0,0.1-0.1,0.2-0.1,0.3h-0.2c0-0.4,0-1.2,0-2.6h0.2c0,0.7,0.2,1.3,0.5,1.7s0.8,0.7,1.4,0.7
		c0.3,0,0.5,0,0.7-0.1c0.2-0.1,0.4-0.2,0.5-0.4c0.1-0.2,0.2-0.4,0.2-0.6c0-0.2-0.1-0.5-0.2-0.7c-0.1-0.2-0.3-0.4-0.5-0.5
		c-0.2-0.2-0.5-0.3-0.9-0.6c-0.4-0.2-0.8-0.5-1-0.6c-0.3-0.2-0.5-0.4-0.6-0.7c-0.2-0.3-0.2-0.5-0.2-0.9c0-0.4,0.1-0.7,0.3-1
		s0.5-0.5,0.9-0.6s0.7-0.2,1.2-0.2C106.3,99.7,106.6,99.7,106.8,99.8z"/>
	<path class="st1" d="M116.1,100.2c-0.1,0.1-0.2,0.2-0.2,0.4c0,0.2-0.1,0.4-0.1,0.7v2.5c0,0.4,0,0.8-0.1,1.2
		c-0.1,0.3-0.2,0.6-0.3,0.8c-0.2,0.3-0.5,0.5-0.8,0.7c-0.4,0.2-0.8,0.2-1.3,0.2c-0.8,0-1.4-0.2-1.9-0.5c-0.2-0.2-0.4-0.3-0.5-0.6
		c-0.1-0.2-0.2-0.5-0.2-0.7c0-0.3-0.1-0.6-0.1-1.1v-3c0-0.2,0-0.4-0.1-0.5c0-0.1-0.1-0.2-0.2-0.2c-0.1,0-0.3-0.1-0.5-0.1v-0.2
		c0.4,0,0.9,0,1.6,0c0.7,0,1.3,0,1.7,0v0.2c-0.3,0-0.4,0-0.6,0.1c-0.1,0-0.2,0.1-0.2,0.2c0,0.1-0.1,0.3-0.1,0.5v3.6
		c0,0.4,0,0.8,0.1,1.1c0.1,0.3,0.2,0.5,0.5,0.6c0.2,0.1,0.5,0.2,0.9,0.2c0.7,0,1.2-0.2,1.5-0.6c0.3-0.4,0.4-1,0.4-1.8v-2.5
		c0-0.4,0-0.6-0.1-0.8c-0.1-0.2-0.1-0.3-0.3-0.4c-0.1-0.1-0.4-0.1-0.7-0.2v-0.2c0.3,0,0.7,0,1.1,0c0.4,0,0.7,0,0.9,0v0.2
		C116.4,100,116.3,100.1,116.1,100.2z"/>
	<path class="st1" d="M120.5,100.1c-0.1,0-0.2,0.1-0.2,0.2s-0.1,0.3-0.1,0.5v4.8c0,0.2,0,0.4,0.1,0.4c0,0.1,0.1,0.2,0.2,0.2
		c0.1,0,0.2,0,0.4,0h0.5c0.3,0,0.6-0.1,0.9-0.3c0.3-0.2,0.5-0.4,0.7-0.7c0.2-0.3,0.3-0.7,0.4-1.1h0.2c0,0.2,0,0.5,0,0.8
		c0,0.5,0,1,0.1,1.5c-0.5,0-1.3,0-2.4,0c-1.5,0-2.7,0-3.4,0v-0.2c0.2,0,0.4,0,0.5-0.1c0.1,0,0.2-0.1,0.2-0.2s0.1-0.3,0.1-0.5v-4.7
		c0-0.2,0-0.4-0.1-0.5s-0.1-0.2-0.2-0.2c-0.1,0-0.3-0.1-0.5-0.1v-0.2c0.4,0,0.9,0,1.7,0c0.7,0,1.3,0,1.7,0v0.2
		C120.8,100,120.6,100,120.5,100.1z"/>
	<path class="st1" d="M130.3,101.4c0,0.3,0,0.5,0,0.7h-0.2c-0.1-0.5-0.3-0.9-0.4-1.3c-0.2-0.3-0.4-0.5-0.6-0.7s-0.5-0.2-0.9-0.2H128
		v5.4c0,0.3,0,0.5,0.1,0.6c0.1,0.1,0.2,0.2,0.3,0.2c0.2,0,0.4,0.1,0.7,0.1v0.2c-0.6,0-1.3,0-2,0c-0.7,0-1.4,0-1.9,0v-0.2
		c0.3,0,0.6,0,0.7-0.1c0.2,0,0.3-0.1,0.3-0.2c0.1-0.1,0.1-0.3,0.1-0.6V100H126c-0.3,0-0.6,0.1-0.9,0.2c-0.2,0.1-0.4,0.4-0.6,0.7
		c-0.2,0.3-0.3,0.7-0.4,1.3h-0.2c0-0.2,0-0.4,0-0.7c0-0.5,0-1-0.1-1.6c0.6,0,1.7,0,3.2,0c1.5,0,2.6,0,3.2,0
		C130.3,100.4,130.3,100.9,130.3,101.4z"/>
	<path class="st1" d="M134.2,100.1c-0.1,0-0.2,0.1-0.2,0.2c0,0.1-0.1,0.3-0.1,0.5v4.7c0,0.2,0,0.4,0.1,0.5c0,0.1,0.1,0.2,0.2,0.2
		c0.1,0,0.3,0.1,0.5,0.1v0.2c-0.4,0-0.9,0-1.6,0c-0.7,0-1.3,0-1.7,0v-0.2c0.2,0,0.4,0,0.5-0.1c0.1,0,0.2-0.1,0.2-0.2
		s0.1-0.3,0.1-0.5v-4.7c0-0.2,0-0.4-0.1-0.5s-0.1-0.2-0.2-0.2c-0.1,0-0.3-0.1-0.5-0.1v-0.2c0.4,0,0.9,0,1.7,0c0.7,0,1.2,0,1.6,0v0.2
		C134.5,100,134.3,100,134.2,100.1z"/>
	<path class="st1" d="M142.4,100.2c-0.1,0.1-0.2,0.2-0.2,0.4c0,0.2-0.1,0.4-0.1,0.7v5.3c-0.1,0-0.1,0-0.3,0c-0.1,0-0.2,0-0.3,0
		l-4.6-5.2v3.6c0,0.4,0,0.7,0.1,0.8c0,0.2,0.1,0.3,0.3,0.4c0.1,0.1,0.4,0.1,0.7,0.2v0.2c-0.3,0-0.7,0-1.1,0c-0.4,0-0.7,0-0.9,0v-0.2
		c0.2,0,0.4-0.1,0.5-0.2c0.1-0.1,0.2-0.2,0.2-0.4c0-0.2,0.1-0.4,0.1-0.7v-4.3c0-0.2,0-0.4-0.1-0.5c0-0.1-0.1-0.2-0.2-0.2
		c-0.1,0-0.3-0.1-0.5-0.1v-0.2c0.2,0,0.5,0,0.9,0c0.4,0,0.7,0,0.9,0l4.1,4.5v-3c0-0.4,0-0.7-0.1-0.8c0-0.2-0.1-0.3-0.3-0.4
		c-0.1-0.1-0.4-0.1-0.7-0.2v-0.2c0.3,0,0.7,0,1.1,0c0.4,0,0.7,0,0.9,0v0.2C142.7,100,142.5,100.1,142.4,100.2z"/>
	<path class="st1" d="M149,99.8c0.3,0.1,0.6,0.3,0.9,0.5c0.1,0.1,0.1,0.1,0.2,0.1c0.1,0,0.1,0,0.2-0.1c0-0.1,0.1-0.2,0.1-0.4h0.2
		c0,0.4,0,1.2,0,2.3h-0.2c-0.1-0.4-0.1-0.8-0.2-1c-0.1-0.3-0.3-0.5-0.5-0.7c-0.2-0.1-0.4-0.3-0.6-0.3c-0.2-0.1-0.5-0.1-0.7-0.1
		c-0.5,0-0.9,0.2-1.2,0.5c-0.3,0.3-0.6,0.7-0.7,1.2c-0.2,0.5-0.2,1-0.2,1.6c0,2.2,0.7,3.3,2,3.3c0.3,0,0.5-0.1,0.7-0.2
		c0.1-0.1,0.2-0.1,0.2-0.2c0-0.1,0.1-0.2,0.1-0.3v-0.9c0-0.3,0-0.5-0.1-0.6c-0.1-0.1-0.2-0.2-0.3-0.3c-0.1-0.1-0.4-0.1-0.7-0.1v-0.2
		c0.4,0,1,0,1.8,0c0.6,0,1.1,0,1.4,0v0.2c-0.1,0-0.2,0-0.3,0.1c-0.1,0-0.1,0.1-0.1,0.2c0,0.1,0,0.3,0,0.5v1.9h-0.2
		c0-0.1,0-0.3-0.1-0.4c-0.1-0.1-0.1-0.2-0.2-0.2c-0.1,0-0.3,0.1-0.6,0.2c-0.6,0.3-1.2,0.5-1.7,0.5c-0.8,0-1.5-0.1-2.1-0.4
		c-0.6-0.3-1-0.7-1.3-1.2c-0.3-0.5-0.4-1.1-0.4-1.8c0-0.7,0.2-1.3,0.5-1.9c0.3-0.5,0.8-1,1.3-1.3c0.6-0.3,1.2-0.4,2-0.4
		C148.4,99.7,148.7,99.7,149,99.8z"/>
</g>
<g>
	<linearGradient id="SVGID_6_" gradientUnits="userSpaceOnUse" x1="110.8039" y1="46.3853" x2="125.8239" y2="46.3853">
		<stop  offset="0" style="stop-color:#E4B079"/>
		<stop  offset="1" style="stop-color:#B5804F"/>
	</linearGradient>
	<polygon class="st6" points="119.1,55.1 125.6,41.2 122.2,41.4 122.7,44.5 118.7,48.2 118.7,42.5 120.2,41.1 118.7,37.7 116,40.3 
		117,42.1 114.7,47.4 112.5,42.1 113.5,40.3 111,37.9 113.6,55.1 	"/>
	
		<rect x="109.6" y="73.2" transform="matrix(-1 -1.224647e-16 1.224647e-16 -1 236.8444 152.4998)" class="st7" width="17.7" height="6.1"/>
	<path class="st7" d="M116,40.4l0.9,1.9l-2.2,5.2l0.9,2.7c0,0,2.3-9.4,3-12.2l0-0.1L116,40.4z"/>
	<linearGradient id="SVGID_7_" gradientUnits="userSpaceOnUse" x1="109.2011" y1="79.9135" x2="102.5717" y2="72.5863">
		<stop  offset="0" style="stop-color:#E4B079"/>
		<stop  offset="1" style="stop-color:#B5804F"/>
	</linearGradient>
	
		<rect x="102.2" y="73.2" transform="matrix(-1 -1.224647e-16 1.224647e-16 -1 211.7728 152.4998)" class="st8" width="7.3" height="6.1"/>
	<linearGradient id="SVGID_8_" gradientUnits="userSpaceOnUse" x1="101.4612" y1="52.9146" x2="119.4439" y2="56.2597">
		<stop  offset="0" style="stop-color:#E4B079"/>
		<stop  offset="1" style="stop-color:#B5804F"/>
	</linearGradient>
	<polygon class="st9" points="119.3,56.1 119.1,55.2 119.1,55.1 113.6,55.1 111,37.9 110.8,37.7 109.3,41.1 110.8,42.5 110.8,48.2 
		106.8,44.5 107.3,41.4 103.9,41.2 110.4,55.2 107.2,71 112.4,71 114.8,58.1 	"/>
	<linearGradient id="SVGID_9_" gradientUnits="userSpaceOnUse" x1="112.208" y1="63.5135" x2="122.5143" y2="63.5135">
		<stop  offset="0" style="stop-color:#E4B079"/>
		<stop  offset="1" style="stop-color:#B5804F"/>
	</linearGradient>
	<polygon class="st10" points="114.8,58.1 112.4,71 114.7,71 122.3,71 119.3,56.1 	"/>
</g>
<rect x="305.2" y="281.9" style="fill:none;" width="214.2" height="14"/>
<text transform="matrix(1 0 0 0.9 365.3534 286.7759)"><tspan x="0" y="0" class="st11" style="font-family:'PlayfairDisplaySC-Bold'; font-size:8px;">CORPORATE FINANCE</tspan><tspan x="18.7" y="8.9" class="st11" style="font-family:'PlayfairDisplaySC-Bold'; font-size:8px;">CONSULTING</tspan></text>
<g>
	<linearGradient id="SVGID_10_" gradientUnits="userSpaceOnUse" x1="409.2325" y1="251.2337" x2="420.7804" y2="251.2337">
		<stop  offset="0" style="stop-color:#E4B079"/>
		<stop  offset="1" style="stop-color:#B5804F"/>
	</linearGradient>
	<polygon class="st12" points="415.6,257.9 420.5,247.3 418,247.5 418.4,249.8 415.3,252.7 415.3,248.3 416.4,247.2 415.3,244.7 
		413.3,246.6 414,248 412.3,252 410.6,248 411.3,246.6 409.5,244.8 411.4,257.9 	"/>
	
		<rect x="408.3" y="271.7" transform="matrix(-1 -1.224647e-16 1.224647e-16 -1 830.1706 547.9766)" class="st7" width="13.5" height="4.6"/>
	<path class="st7" d="M413.3,246.7l0.7,1.4l-1.7,4l0.7,2c0,0,1.7-7.2,2.3-9.3l0-0.1L413.3,246.7z"/>
	<linearGradient id="SVGID_11_" gradientUnits="userSpaceOnUse" x1="408.1033" y1="276.8167" x2="402.9853" y2="271.1599">
		<stop  offset="0" style="stop-color:#E4B079"/>
		<stop  offset="1" style="stop-color:#B5804F"/>
	</linearGradient>
	
		<rect x="402.8" y="271.7" transform="matrix(-1 -1.224647e-16 1.224647e-16 -1 811.0886 547.9766)" class="st13" width="5.6" height="4.6"/>
	<linearGradient id="SVGID_12_" gradientUnits="userSpaceOnUse" x1="402.1106" y1="256.2077" x2="415.9107" y2="258.7747">
		<stop  offset="0" style="stop-color:#E4B079"/>
		<stop  offset="1" style="stop-color:#B5804F"/>
	</linearGradient>
	<polygon class="st14" points="415.7,258.7 415.6,258 415.6,257.9 411.4,257.9 409.5,244.8 409.3,244.7 408.2,247.2 409.3,248.3 
		409.3,252.7 406.2,249.8 406.6,247.5 404.1,247.3 409,258 406.5,270 410.5,270 412.3,260.2 	"/>
	<linearGradient id="SVGID_13_" gradientUnits="userSpaceOnUse" x1="410.3098" y1="264.287" x2="418.2467" y2="264.287">
		<stop  offset="0" style="stop-color:#E4B079"/>
		<stop  offset="1" style="stop-color:#B5804F"/>
	</linearGradient>
	<polygon class="st15" points="412.3,260.2 410.5,270 412.3,270 418.1,270 415.7,258.7 	"/>
</g>
<line class="st16" x1="75.6" y1="-93.5" x2="94.2" y2="-93.5"/>
<line class="st16" x1="149" y1="-93.5" x2="167.6" y2="-93.5"/>
<radialGradient id="SVGID_14_" cx="425.3064" cy="-123.545" r="101.4643" gradientTransform="matrix(1.0353 0 0 1.0545 -31.3475 6.7386)" gradientUnits="userSpaceOnUse">
	<stop  offset="0" style="stop-color:#0E3249"/>
	<stop  offset="1" style="stop-color:#11263C"/>
</radialGradient>
<rect x="284.2" y="-205.8" class="st17" width="249.4" height="164.4"/>
<rect x="399.1" y="-137" style="fill:none;" width="56.1" height="23.3"/>
<text transform="matrix(1 0 0 0.9 399.0722 -132.4451)"><tspan x="0" y="0" class="st18" style="font-family:'PlayfairDisplaySC-Bold'; font-size:7.4973px;">CORPORATE </tspan><tspan x="0" y="7.2" class="st18" style="font-family:'PlayfairDisplaySC-Bold'; font-size:7.4973px;">FINANCE</tspan><tspan x="0" y="14.4" class="st18" style="font-family:'PlayfairDisplaySC-Bold'; font-size:7.4973px;">CONSULTING</tspan></text>
<rect x="399.1" y="-115.2" style="fill:none;" width="82.6" height="15.4"/>
<text transform="matrix(1 0 0 1 399.1171 -111.7932)" class="st1" style="font-family:'Avenir-Light'; font-size:4.4984px; letter-spacing:1;">ŁUKASZ ŁOZIŃSKI</text>
<g>
	<g>
		<g>
			<g>
				<defs>
					<path id="SVGID_15_" d="M386.9-128.3h-4.6l-2.2-14.3l2.4,2.3l-0.8,1.5l1.6,3.7l1.6-3.7l-0.8-1.5l2.3-2.2l1.3,3l-1.2,1.1v4.1
						l2.9-2.7l-0.4-2.5l3.1-0.2L386.9-128.3z M382.6-128.6h4.1l4.9-10.7l-2.2,0.1l0.4,2.3l-3.6,3.3v-5l1.2-1l-1-2.3l-1.8,1.7
						l0.7,1.5l0,0.1l-1.9,4.5l-2-4.6l0.7-1.5l-1.5-1.4L382.6-128.6z"/>
				</defs>
				<clipPath id="SVGID_16_">
					<use xlink:href="#SVGID_15_"  style="overflow:visible;"/>
				</clipPath>
				<rect x="380.6" y="-142" class="st19" width="0.2" height="13.3"/>
				<rect x="380.8" y="-142" class="st20" width="0.3" height="13.3"/>
				<rect x="381.2" y="-142" class="st21" width="0.3" height="13.3"/>
				<rect x="381.5" y="-142" class="st22" width="0.3" height="13.3"/>
				<rect x="381.8" y="-142" class="st23" width="0.3" height="13.3"/>
				<rect x="382.2" y="-142" class="st24" width="0.3" height="13.3"/>
				<rect x="382.5" y="-142" class="st25" width="0.3" height="13.3"/>
				<rect x="382.8" y="-142" class="st26" width="0.3" height="13.3"/>
				<rect x="383.2" y="-142" class="st27" width="0.3" height="13.3"/>
				<rect x="383.5" y="-142" class="st28" width="0.3" height="13.3"/>
				<rect x="383.8" y="-142" class="st29" width="0.3" height="13.3"/>
				<rect x="384.2" y="-142" class="st30" width="0.3" height="13.3"/>
				<rect x="384.5" y="-142" class="st31" width="0.3" height="13.3"/>
				<rect x="384.8" y="-142" class="st32" width="0.3" height="13.3"/>
				<rect x="385.2" y="-142" class="st33" width="0.3" height="13.3"/>
				<rect x="385.5" y="-142" class="st34" width="0.3" height="13.3"/>
				<rect x="385.8" y="-142" class="st35" width="0.3" height="13.3"/>
				<rect x="386.2" y="-142" class="st36" width="0.3" height="13.3"/>
				<rect x="386.5" y="-142" class="st37" width="0.3" height="13.3"/>
				<rect x="386.8" y="-142" class="st38" width="0.3" height="13.3"/>
				<rect x="387.2" y="-142" class="st39" width="0.3" height="13.3"/>
				<rect x="387.5" y="-142" class="st40" width="0.3" height="13.3"/>
				<rect x="387.8" y="-142" class="st41" width="0.3" height="13.3"/>
				<rect x="388.2" y="-142" class="st42" width="0.3" height="13.3"/>
				<rect x="388.5" y="-142" class="st43" width="0.3" height="13.3"/>
				<rect x="388.8" y="-142" class="st44" width="0.3" height="13.3"/>
				<rect x="389.2" y="-142" class="st45" width="0.3" height="13.3"/>
				<rect x="389.5" y="-142" class="st46" width="0.3" height="13.3"/>
				<rect x="389.8" y="-142" class="st47" width="0.3" height="13.3"/>
				<rect x="390.2" y="-142" class="st48" width="0.3" height="13.3"/>
				<rect x="390.5" y="-142" class="st49" width="0.3" height="13.3"/>
				<rect x="390.8" y="-142" class="st50" width="0.3" height="13.3"/>
				<rect x="391.2" y="-142" class="st51" width="0.3" height="13.3"/>
				<rect x="391.5" y="-142" class="st52" width="0.1" height="13.3"/>
				<path class="st53" d="M380.1-142.6v14.3V-142.6z"/>
				<rect x="380.1" y="-142.6" class="st53" width="0.3" height="14.3"/>
				<rect x="380.5" y="-142.6" class="st19" width="0.3" height="14.3"/>
				<rect x="380.8" y="-142.6" class="st20" width="0.3" height="14.3"/>
				<rect x="381.2" y="-142.6" class="st21" width="0.3" height="14.3"/>
				<rect x="381.5" y="-142.6" class="st22" width="0.3" height="14.3"/>
				<rect x="381.8" y="-142.6" class="st23" width="0.3" height="14.3"/>
				<rect x="382.2" y="-142.6" class="st24" width="0.3" height="14.3"/>
				<rect x="382.5" y="-142.6" class="st25" width="0.3" height="14.3"/>
				<rect x="382.8" y="-142.6" class="st26" width="0.3" height="14.3"/>
				<rect x="383.2" y="-142.6" class="st27" width="0.3" height="14.3"/>
				<rect x="383.5" y="-142.6" class="st28" width="0.3" height="14.3"/>
				<rect x="383.8" y="-142.6" class="st29" width="0.3" height="14.3"/>
				<rect x="384.2" y="-142.6" class="st30" width="0.3" height="14.3"/>
				<rect x="384.5" y="-142.6" class="st31" width="0.3" height="14.3"/>
				<rect x="384.8" y="-142.6" class="st32" width="0.3" height="14.3"/>
				<rect x="385.2" y="-142.6" class="st33" width="0.3" height="14.3"/>
				<rect x="385.5" y="-142.6" class="st34" width="0.3" height="14.3"/>
				<rect x="385.8" y="-142.6" class="st35" width="0.3" height="14.3"/>
				<rect x="386.2" y="-142.6" class="st36" width="0.3" height="14.3"/>
				<rect x="386.5" y="-142.6" class="st37" width="0.3" height="14.3"/>
				<rect x="386.8" y="-142.6" class="st38" width="0.3" height="14.3"/>
				<rect x="387.2" y="-142.6" class="st39" width="0.3" height="14.3"/>
				<rect x="387.5" y="-142.6" class="st40" width="0.3" height="14.3"/>
				<rect x="387.8" y="-142.6" class="st41" width="0.3" height="14.3"/>
				<rect x="388.2" y="-142.6" class="st42" width="0.3" height="14.3"/>
				<rect x="388.5" y="-142.6" class="st43" width="0.3" height="14.3"/>
				<rect x="388.8" y="-142.6" class="st44" width="0.3" height="14.3"/>
				<rect x="389.2" y="-142.6" class="st45" width="0.3" height="14.3"/>
				<rect x="389.5" y="-142.6" class="st46" width="0.3" height="14.3"/>
				<rect x="389.8" y="-142.6" class="st47" width="0.3" height="14.3"/>
				<rect x="390.2" y="-142.6" class="st48" width="0.3" height="14.3"/>
				<rect x="390.5" y="-142.6" class="st49" width="0.3" height="14.3"/>
				<rect x="390.8" y="-142.6" class="st50" width="0.3" height="14.3"/>
				<rect x="391.2" y="-142.6" class="st51" width="0.3" height="14.3"/>
				<rect x="391.5" y="-142.6" class="st52" width="0.3" height="14.3"/>
				<rect x="391.8" y="-142.6" class="st54" width="0.3" height="14.3"/>
				<path class="st54" d="M392.2-128.3v-14.3V-128.3z"/>
			</g>
		</g>
	</g>
	<g>
		<g>
			<path class="st1" d="M393.4-109.1H379v-5.2h14.4V-109.1z M379.4-109.5h13.7v-4.5h-13.7V-109.5z"/>
		</g>
	</g>
	<g>
		<g>
			<path class="st1" d="M384.1-131.8l-0.9-2.7l1.8-4.1l-0.8-1.5l2.3-2.2l0.1,0.3l0,0.1c-0.6,2.2-2.4,9.6-2.4,9.7L384.1-131.8z
				 M383.5-134.5l0.5,1.5c0.4-1.6,1.6-6.5,2.1-8.7l-1.6,1.6l0.7,1.5L383.5-134.5z"/>
		</g>
	</g>
	<g>
		<g>
			<g>
				<defs>
					<path id="SVGID_17_" d="M379.4-109.1h-6.1v-5.2h6.1V-109.1z M373.6-109.5h5.5v-4.5h-5.5V-109.5z"/>
				</defs>
				<clipPath id="SVGID_18_">
					<use xlink:href="#SVGID_17_"  style="overflow:visible;"/>
				</clipPath>
				<polygon class="st55" points="378.8,-109.5 379,-109.7 379,-109.5 				"/>
				<polygon class="st56" points="378.4,-109.5 379,-110 379,-109.7 378.8,-109.5 				"/>
				<polygon class="st57" points="378.1,-109.5 379,-110.3 379,-110 378.4,-109.5 				"/>
				<polygon class="st58" points="377.8,-109.5 379,-110.6 379,-110.3 378.1,-109.5 				"/>
				<polygon class="st59" points="377.4,-109.5 379,-110.9 379,-110.6 377.8,-109.5 				"/>
				<polygon class="st60" points="377.1,-109.5 379,-111.2 379,-110.9 377.4,-109.5 				"/>
				<polygon class="st61" points="376.8,-109.5 379,-111.5 379,-111.2 377.1,-109.5 				"/>
				<polygon class="st62" points="376.5,-109.5 379,-111.8 379,-111.5 376.8,-109.5 				"/>
				<polygon class="st63" points="376.1,-109.5 379,-112.1 379,-111.8 376.5,-109.5 				"/>
				<polygon class="st64" points="375.8,-109.5 379,-112.4 379,-112.1 376.1,-109.5 				"/>
				<polygon class="st65" points="375.5,-109.5 379,-112.7 379,-112.4 375.8,-109.5 				"/>
				<polygon class="st66" points="375.1,-109.5 379,-113 379,-112.7 375.5,-109.5 				"/>
				<polygon class="st67" points="374.8,-109.5 379,-113.3 379,-113 375.1,-109.5 				"/>
				<polygon class="st68" points="374.5,-109.5 379,-113.6 379,-113.3 374.8,-109.5 				"/>
				<polygon class="st69" points="374.2,-109.5 379,-113.9 379,-113.6 374.5,-109.5 				"/>
				<polygon class="st70" points="373.8,-109.5 378.8,-114 379,-114 379,-113.9 374.2,-109.5 				"/>
				<polygon class="st71" points="373.6,-109.5 378.5,-114 378.8,-114 373.8,-109.5 373.6,-109.5 				"/>
				<polygon class="st72" points="373.6,-109.8 378.1,-114 378.5,-114 373.6,-109.5 				"/>
				<polygon class="st73" points="373.6,-110.1 377.8,-114 378.1,-114 373.6,-109.8 				"/>
				<polygon class="st74" points="373.6,-110.4 377.5,-114 377.8,-114 373.6,-110.1 				"/>
				<polygon class="st75" points="373.6,-110.7 377.1,-114 377.5,-114 373.6,-110.4 				"/>
				<polygon class="st76" points="373.6,-111 376.8,-114 377.1,-114 373.6,-110.7 				"/>
				<polygon class="st77" points="373.6,-111.3 376.5,-114 376.8,-114 373.6,-111 				"/>
				<polygon class="st78" points="373.6,-111.6 376.2,-114 376.5,-114 373.6,-111.3 				"/>
				<polygon class="st79" points="373.6,-111.9 375.8,-114 376.2,-114 373.6,-111.6 				"/>
				<polygon class="st80" points="373.6,-112.2 375.5,-114 375.8,-114 373.6,-111.9 				"/>
				<polygon class="st81" points="373.6,-112.5 375.2,-114 375.5,-114 373.6,-112.2 				"/>
				<polygon class="st82" points="373.6,-112.8 374.8,-114 375.2,-114 373.6,-112.5 				"/>
				<polygon class="st83" points="373.6,-113.1 374.5,-114 374.8,-114 373.6,-112.8 				"/>
				<polygon class="st84" points="373.6,-113.4 374.2,-114 374.5,-114 373.6,-113.1 				"/>
				<polygon class="st85" points="373.6,-113.7 373.9,-114 374.2,-114 373.6,-113.4 				"/>
				<polygon class="st86" points="373.9,-114 373.6,-113.7 373.6,-114 				"/>
				<path class="st87" d="M379.4-109.1L379.4-109.1L379.4-109.1z"/>
				<path class="st87" d="M379.1-109.1l0.3-0.3L379.1-109.1z"/>
				<polygon class="st88" points="378.7,-109.1 379.4,-109.7 379.4,-109.4 379.1,-109.1 				"/>
				<polygon class="st55" points="378.4,-109.1 379.4,-110 379.4,-109.7 378.7,-109.1 				"/>
				<polygon class="st56" points="378.1,-109.1 379.4,-110.3 379.4,-110 378.4,-109.1 				"/>
				<polygon class="st57" points="377.7,-109.1 379.4,-110.6 379.4,-110.3 378.1,-109.1 				"/>
				<polygon class="st58" points="377.4,-109.1 379.4,-110.9 379.4,-110.6 377.7,-109.1 				"/>
				<polygon class="st59" points="377.1,-109.1 379.4,-111.2 379.4,-110.9 377.4,-109.1 				"/>
				<polygon class="st60" points="376.8,-109.1 379.4,-111.5 379.4,-111.2 377.1,-109.1 				"/>
				<polygon class="st61" points="376.4,-109.1 379.4,-111.8 379.4,-111.5 376.8,-109.1 				"/>
				<polygon class="st62" points="376.1,-109.1 379.4,-112.1 379.4,-111.8 376.4,-109.1 				"/>
				<polygon class="st63" points="375.8,-109.1 379.4,-112.4 379.4,-112.1 376.1,-109.1 				"/>
				<polygon class="st64" points="375.4,-109.1 379.4,-112.7 379.4,-112.4 375.8,-109.1 				"/>
				<polygon class="st65" points="375.1,-109.1 379.4,-113 379.4,-112.7 375.4,-109.1 				"/>
				<polygon class="st66" points="374.8,-109.1 379.4,-113.3 379.4,-113 375.1,-109.1 				"/>
				<polygon class="st67" points="374.4,-109.1 379.4,-113.6 379.4,-113.3 374.8,-109.1 				"/>
				<polygon class="st68" points="374.1,-109.1 379.4,-113.9 379.4,-113.6 374.4,-109.1 				"/>
				<polygon class="st69" points="373.8,-109.1 379.4,-114.2 379.4,-113.9 374.1,-109.1 				"/>
				<polygon class="st70" points="373.5,-109.1 379.2,-114.3 379.4,-114.3 379.4,-114.2 373.8,-109.1 				"/>
				<polygon class="st71" points="373.2,-109.2 378.8,-114.3 379.2,-114.3 373.5,-109.1 373.2,-109.1 				"/>
				<polygon class="st72" points="373.2,-109.5 378.5,-114.3 378.8,-114.3 373.2,-109.2 				"/>
				<polygon class="st73" points="373.2,-109.8 378.2,-114.3 378.5,-114.3 373.2,-109.5 				"/>
				<polygon class="st74" points="373.2,-110.1 377.8,-114.3 378.2,-114.3 373.2,-109.8 				"/>
				<polygon class="st75" points="373.2,-110.4 377.5,-114.3 377.8,-114.3 373.2,-110.1 				"/>
				<polygon class="st76" points="373.2,-110.7 377.2,-114.3 377.5,-114.3 373.2,-110.4 				"/>
				<polygon class="st77" points="373.2,-111 376.9,-114.3 377.2,-114.3 373.2,-110.7 				"/>
				<polygon class="st78" points="373.2,-111.3 376.5,-114.3 376.9,-114.3 373.2,-111 				"/>
				<polygon class="st79" points="373.2,-111.6 376.2,-114.3 376.5,-114.3 373.2,-111.3 				"/>
				<polygon class="st80" points="373.2,-111.9 375.9,-114.3 376.2,-114.3 373.2,-111.6 				"/>
				<polygon class="st81" points="373.2,-112.2 375.5,-114.3 375.9,-114.3 373.2,-111.9 				"/>
				<polygon class="st82" points="373.2,-112.5 375.2,-114.3 375.5,-114.3 373.2,-112.2 				"/>
				<polygon class="st83" points="373.2,-112.8 374.9,-114.3 375.2,-114.3 373.2,-112.5 				"/>
				<polygon class="st84" points="373.2,-113.1 374.6,-114.3 374.9,-114.3 373.2,-112.8 				"/>
				<polygon class="st85" points="373.2,-113.4 374.2,-114.3 374.6,-114.3 373.2,-113.1 				"/>
				<polygon class="st86" points="373.2,-113.7 373.9,-114.3 374.2,-114.3 373.2,-113.4 				"/>
				<polygon class="st89" points="373.2,-114 373.6,-114.3 373.9,-114.3 373.2,-113.7 				"/>
				<polygon class="st90" points="373.2,-114.3 373.2,-114.3 373.6,-114.3 373.2,-114 				"/>
				<path class="st90" d="M373.2-114.3L373.2-114.3L373.2-114.3z"/>
			</g>
		</g>
	</g>
	<g>
		<g>
			<g>
				<defs>
					<path id="SVGID_19_" d="M381.6-115.7h-4.5l2.6-12.6l-5.2-11.3l3.1,0.2l-0.4,2.5l2.9,2.7v-4.1l-1.2-1.1l1.3-3l0.4,0.4l0,0.1
						l2,13.5h4.5l-0.1,0.3l0.2,0.8l-3.6,1.6L381.6-115.7z M377.5-116.1h3.8l1.9-10.2l3.5-1.5l-0.1-0.5h-4.3l-2.1-13.6l-1,2.3l1.2,1
						v5l-3.6-3.3l0.4-2.3l-2.2-0.1l5.1,10.9L377.5-116.1z"/>
				</defs>
				<clipPath id="SVGID_20_">
					<use xlink:href="#SVGID_19_"  style="overflow:visible;"/>
				</clipPath>
				<polygon class="st91" points="375.3,-141.9 375,-140.4 375,-141.9 				"/>
				<polygon class="st92" points="375.7,-141.9 375,-138.1 375,-140.4 375.3,-141.9 				"/>
				<polygon class="st93" points="376.1,-141.9 375,-135.9 375,-138.1 375.7,-141.9 				"/>
				<polygon class="st94" points="376.6,-141.9 375,-133.7 375,-135.9 376.1,-141.9 				"/>
				<polygon class="st95" points="377,-141.9 375,-131.5 375,-133.7 376.6,-141.9 				"/>
				<polygon class="st96" points="377.4,-141.9 375,-129.3 375,-131.5 377,-141.9 				"/>
				<polygon class="st97" points="377.8,-141.9 375,-127 375,-129.3 377.4,-141.9 				"/>
				<polygon class="st98" points="378.2,-141.9 375,-124.8 375,-127 377.8,-141.9 				"/>
				<polygon class="st99" points="378.6,-141.9 375,-122.6 375,-124.8 378.2,-141.9 				"/>
				<polygon class="st100" points="379,-141.9 375,-120.4 375,-122.6 378.6,-141.9 				"/>
				<polygon class="st101" points="379.4,-141.9 375,-118.1 375,-120.4 379,-141.9 				"/>
				<polygon class="st102" points="379.9,-141.9 375.1,-116.1 375,-116.1 375,-118.1 379.4,-141.9 				"/>
				<polygon class="st103" points="380.3,-141.9 375.5,-116.1 375.1,-116.1 379.9,-141.9 				"/>
				<polygon class="st104" points="380.7,-141.9 375.9,-116.1 375.5,-116.1 380.3,-141.9 				"/>
				<polygon class="st105" points="381.1,-141.9 376.3,-116.1 375.9,-116.1 380.7,-141.9 				"/>
				<polygon class="st106" points="381.5,-141.9 376.7,-116.1 376.3,-116.1 381.1,-141.9 				"/>
				<polygon class="st107" points="381.9,-141.9 377.1,-116.1 376.7,-116.1 381.5,-141.9 				"/>
				<polygon class="st108" points="382.3,-141.9 377.5,-116.1 377.1,-116.1 381.9,-141.9 				"/>
				<polygon class="st109" points="382.7,-141.9 377.9,-116.1 377.5,-116.1 382.3,-141.9 				"/>
				<polygon class="st110" points="383.2,-141.9 378.4,-116.1 377.9,-116.1 382.7,-141.9 				"/>
				<polygon class="st111" points="383.6,-141.9 378.8,-116.1 378.4,-116.1 383.2,-141.9 				"/>
				<polygon class="st112" points="384,-141.9 379.2,-116.1 378.8,-116.1 383.6,-141.9 				"/>
				<polygon class="st113" points="384.4,-141.9 379.6,-116.1 379.2,-116.1 384,-141.9 				"/>
				<polygon class="st114" points="384.8,-141.9 380,-116.1 379.6,-116.1 384.4,-141.9 				"/>
				<polygon class="st115" points="385.2,-141.9 380.4,-116.1 380,-116.1 384.8,-141.9 				"/>
				<polygon class="st116" points="385.6,-141.9 380.8,-116.1 380.4,-116.1 385.2,-141.9 				"/>
				<polygon class="st117" points="386.1,-141.9 381.3,-116.1 380.8,-116.1 385.6,-141.9 				"/>
				<polygon class="st118" points="386.5,-141.9 381.7,-116.1 381.3,-116.1 386.1,-141.9 				"/>
				<polygon class="st119" points="386.7,-141.1 382.1,-116.1 381.7,-116.1 386.5,-141.9 386.7,-141.9 				"/>
				<polygon class="st120" points="386.7,-138.8 382.5,-116.1 382.1,-116.1 386.7,-141.1 				"/>
				<polygon class="st121" points="386.7,-136.6 382.9,-116.1 382.5,-116.1 386.7,-138.8 				"/>
				<polygon class="st122" points="386.7,-134.4 383.3,-116.1 382.9,-116.1 386.7,-136.6 				"/>
				<polygon class="st123" points="386.7,-132.2 383.7,-116.1 383.3,-116.1 386.7,-134.4 				"/>
				<polygon class="st124" points="386.7,-130 384.1,-116.1 383.7,-116.1 386.7,-132.2 				"/>
				<polygon class="st125" points="386.7,-127.7 384.6,-116.1 384.1,-116.1 386.7,-130 				"/>
				<polygon class="st126" points="386.7,-125.5 385,-116.1 384.6,-116.1 386.7,-127.7 				"/>
				<polygon class="st126" points="385,-116.1 386.7,-125.5 386.7,-116.1 				"/>
				<polygon class="st91" points="375,-142.5 374.5,-139.7 374.5,-142.5 				"/>
				<polygon class="st91" points="375.4,-142.5 374.5,-137.5 374.5,-139.7 375,-142.5 				"/>
				<polygon class="st92" points="375.8,-142.5 374.5,-135.2 374.5,-137.5 375.4,-142.5 				"/>
				<polygon class="st93" points="376.3,-142.5 374.5,-133 374.5,-135.2 375.8,-142.5 				"/>
				<polygon class="st94" points="376.7,-142.5 374.5,-130.8 374.5,-133 376.3,-142.5 				"/>
				<polygon class="st95" points="377.1,-142.5 374.5,-128.6 374.5,-130.8 376.7,-142.5 				"/>
				<polygon class="st96" points="377.5,-142.5 374.5,-126.4 374.5,-128.6 377.1,-142.5 				"/>
				<polygon class="st97" points="377.9,-142.5 374.5,-124.1 374.5,-126.4 377.5,-142.5 				"/>
				<polygon class="st98" points="378.3,-142.5 374.5,-121.9 374.5,-124.1 377.9,-142.5 				"/>
				<polygon class="st99" points="378.7,-142.5 374.5,-119.7 374.5,-121.9 378.3,-142.5 				"/>
				<polygon class="st100" points="379.1,-142.5 374.5,-117.5 374.5,-119.7 378.7,-142.5 				"/>
				<polygon class="st101" points="379.6,-142.5 374.6,-115.7 374.5,-115.7 374.5,-117.5 379.1,-142.5 				"/>
				<polygon class="st102" points="380,-142.5 375,-115.7 374.6,-115.7 379.6,-142.5 				"/>
				<polygon class="st103" points="380.4,-142.5 375.4,-115.7 375,-115.7 380,-142.5 				"/>
				<polygon class="st104" points="380.8,-142.5 375.8,-115.7 375.4,-115.7 380.4,-142.5 				"/>
				<polygon class="st105" points="381.2,-142.5 376.2,-115.7 375.8,-115.7 380.8,-142.5 				"/>
				<polygon class="st106" points="381.6,-142.5 376.6,-115.7 376.2,-115.7 381.2,-142.5 				"/>
				<polygon class="st107" points="382,-142.5 377.1,-115.7 376.6,-115.7 381.6,-142.5 				"/>
				<polygon class="st108" points="382.5,-142.5 377.5,-115.7 377.1,-115.7 382,-142.5 				"/>
				<polygon class="st109" points="382.9,-142.5 377.9,-115.7 377.5,-115.7 382.5,-142.5 				"/>
				<polygon class="st110" points="383.3,-142.5 378.3,-115.7 377.9,-115.7 382.9,-142.5 				"/>
				<polygon class="st111" points="383.7,-142.5 378.7,-115.7 378.3,-115.7 383.3,-142.5 				"/>
				<polygon class="st112" points="384.1,-142.5 379.1,-115.7 378.7,-115.7 383.7,-142.5 				"/>
				<polygon class="st113" points="384.5,-142.5 379.5,-115.7 379.1,-115.7 384.1,-142.5 				"/>
				<polygon class="st114" points="384.9,-142.5 380,-115.7 379.5,-115.7 384.5,-142.5 				"/>
				<polygon class="st115" points="385.3,-142.5 380.4,-115.7 380,-115.7 384.9,-142.5 				"/>
				<polygon class="st116" points="385.8,-142.5 380.8,-115.7 380.4,-115.7 385.3,-142.5 				"/>
				<polygon class="st117" points="386.2,-142.5 381.2,-115.7 380.8,-115.7 385.8,-142.5 				"/>
				<polygon class="st118" points="386.6,-142.5 381.6,-115.7 381.2,-115.7 386.2,-142.5 				"/>
				<polygon class="st119" points="387,-142.5 382,-115.7 381.6,-115.7 386.6,-142.5 				"/>
				<polygon class="st120" points="387.1,-140.9 382.4,-115.7 382,-115.7 387,-142.5 387.1,-142.5 				"/>
				<polygon class="st121" points="387.1,-138.7 382.8,-115.7 382.4,-115.7 387.1,-140.9 				"/>
				<polygon class="st122" points="387.1,-136.5 383.3,-115.7 382.8,-115.7 387.1,-138.7 				"/>
				<polygon class="st123" points="387.1,-134.2 383.7,-115.7 383.3,-115.7 387.1,-136.5 				"/>
				<polygon class="st124" points="387.1,-132 384.1,-115.7 383.7,-115.7 387.1,-134.2 				"/>
				<polygon class="st125" points="387.1,-129.8 384.5,-115.7 384.1,-115.7 387.1,-132 				"/>
				<polygon class="st126" points="387.1,-127.6 384.9,-115.7 384.5,-115.7 387.1,-129.8 				"/>
				<polygon class="st126" points="384.9,-115.7 387.1,-127.6 387.1,-115.7 				"/>
			</g>
		</g>
	</g>
	<g>
		<g>
			<g>
				<defs>
					<path id="SVGID_21_" d="M389.5-115.7h-8.3l1.9-10.5l3.8-1.7L389.5-115.7z M381.7-116.1h7.5l-2.3-11.4l-3.3,1.4L381.7-116.1z"/>
				</defs>
				<clipPath id="SVGID_22_">
					<use xlink:href="#SVGID_21_"  style="overflow:visible;"/>
				</clipPath>
				<rect x="381.7" y="-127.4" class="st127" width="0.1" height="11.4"/>
				<rect x="381.7" y="-127.4" class="st128" width="0.2" height="11.4"/>
				<rect x="382" y="-127.4" class="st129" width="0.2" height="11.4"/>
				<rect x="382.2" y="-127.4" class="st130" width="0.2" height="11.4"/>
				<rect x="382.4" y="-127.4" class="st131" width="0.2" height="11.4"/>
				<rect x="382.6" y="-127.4" class="st132" width="0.2" height="11.4"/>
				<rect x="382.9" y="-127.4" class="st133" width="0.2" height="11.4"/>
				<rect x="383.1" y="-127.4" class="st134" width="0.2" height="11.4"/>
				<rect x="383.3" y="-127.4" class="st135" width="0.2" height="11.4"/>
				<rect x="383.6" y="-127.4" class="st136" width="0.2" height="11.4"/>
				<rect x="383.8" y="-127.4" class="st137" width="0.2" height="11.4"/>
				<rect x="384" y="-127.4" class="st138" width="0.2" height="11.4"/>
				<rect x="384.3" y="-127.4" class="st139" width="0.2" height="11.4"/>
				<rect x="384.5" y="-127.4" class="st140" width="0.2" height="11.4"/>
				<rect x="384.7" y="-127.4" class="st141" width="0.2" height="11.4"/>
				<rect x="384.9" y="-127.4" class="st142" width="0.2" height="11.4"/>
				<rect x="385.2" y="-127.4" class="st143" width="0.2" height="11.4"/>
				<rect x="385.4" y="-127.4" class="st144" width="0.2" height="11.4"/>
				<rect x="385.6" y="-127.4" class="st145" width="0.2" height="11.4"/>
				<rect x="385.9" y="-127.4" class="st146" width="0.2" height="11.4"/>
				<rect x="386.1" y="-127.4" class="st147" width="0.2" height="11.4"/>
				<rect x="386.3" y="-127.4" class="st148" width="0.2" height="11.4"/>
				<rect x="386.6" y="-127.4" class="st149" width="0.2" height="11.4"/>
				<rect x="386.8" y="-127.4" class="st150" width="0.2" height="11.4"/>
				<rect x="387" y="-127.4" class="st151" width="0.2" height="11.4"/>
				<rect x="387.2" y="-127.4" class="st152" width="0.2" height="11.4"/>
				<rect x="387.5" y="-127.4" class="st153" width="0.2" height="11.4"/>
				<rect x="387.7" y="-127.4" class="st154" width="0.2" height="11.4"/>
				<rect x="387.9" y="-127.4" class="st155" width="0.2" height="11.4"/>
				<rect x="388.2" y="-127.4" class="st156" width="0.2" height="11.4"/>
				<rect x="388.4" y="-127.4" class="st157" width="0.2" height="11.4"/>
				<rect x="388.6" y="-127.4" class="st158" width="0.2" height="11.4"/>
				<rect x="388.8" y="-127.4" class="st159" width="0.2" height="11.4"/>
				<rect x="389.1" y="-127.4" class="st160" width="0.1" height="11.4"/>
				<path class="st161" d="M381.3-127.9v12.2V-127.9z"/>
				<rect x="381.3" y="-127.9" class="st161" width="0.2" height="12.2"/>
				<rect x="381.5" y="-127.9" class="st127" width="0.2" height="12.2"/>
				<rect x="381.7" y="-127.9" class="st128" width="0.2" height="12.2"/>
				<rect x="382" y="-127.9" class="st129" width="0.2" height="12.2"/>
				<rect x="382.2" y="-127.9" class="st130" width="0.2" height="12.2"/>
				<rect x="382.4" y="-127.9" class="st131" width="0.2" height="12.2"/>
				<rect x="382.6" y="-127.9" class="st132" width="0.2" height="12.2"/>
				<rect x="382.9" y="-127.9" class="st133" width="0.2" height="12.2"/>
				<rect x="383.1" y="-127.9" class="st134" width="0.2" height="12.2"/>
				<rect x="383.3" y="-127.9" class="st135" width="0.2" height="12.2"/>
				<rect x="383.6" y="-127.9" class="st136" width="0.2" height="12.2"/>
				<rect x="383.8" y="-127.9" class="st137" width="0.2" height="12.2"/>
				<rect x="384" y="-127.9" class="st138" width="0.2" height="12.2"/>
				<rect x="384.3" y="-127.9" class="st139" width="0.2" height="12.2"/>
				<rect x="384.5" y="-127.9" class="st140" width="0.2" height="12.2"/>
				<rect x="384.7" y="-127.9" class="st141" width="0.2" height="12.2"/>
				<rect x="384.9" y="-127.9" class="st142" width="0.2" height="12.2"/>
				<rect x="385.2" y="-127.9" class="st143" width="0.2" height="12.2"/>
				<rect x="385.4" y="-127.9" class="st144" width="0.2" height="12.2"/>
				<rect x="385.6" y="-127.9" class="st145" width="0.2" height="12.2"/>
				<rect x="385.9" y="-127.9" class="st146" width="0.2" height="12.2"/>
				<rect x="386.1" y="-127.9" class="st147" width="0.2" height="12.2"/>
				<rect x="386.3" y="-127.9" class="st148" width="0.2" height="12.2"/>
				<rect x="386.6" y="-127.9" class="st149" width="0.2" height="12.2"/>
				<rect x="386.8" y="-127.9" class="st150" width="0.2" height="12.2"/>
				<rect x="387" y="-127.9" class="st151" width="0.2" height="12.2"/>
				<rect x="387.2" y="-127.9" class="st152" width="0.2" height="12.2"/>
				<rect x="387.5" y="-127.9" class="st153" width="0.2" height="12.2"/>
				<rect x="387.7" y="-127.9" class="st154" width="0.2" height="12.2"/>
				<rect x="387.9" y="-127.9" class="st155" width="0.2" height="12.2"/>
				<rect x="388.2" y="-127.9" class="st156" width="0.2" height="12.2"/>
				<rect x="388.4" y="-127.9" class="st157" width="0.2" height="12.2"/>
				<rect x="388.6" y="-127.9" class="st158" width="0.2" height="12.2"/>
				<rect x="388.8" y="-127.9" class="st159" width="0.2" height="12.2"/>
				<rect x="389.1" y="-127.9" class="st160" width="0.2" height="12.2"/>
				<rect x="389.3" y="-127.9" class="st162" width="0.2" height="12.2"/>
				<path class="st162" d="M389.5-115.7v-12.2V-115.7z"/>
			</g>
		</g>
	</g>
</g>
<rect x="399.3" y="58.7" style="fill:none;" width="56.1" height="23.3"/>
<text transform="matrix(1 0 0 0.9 399.3222 63.2216)"><tspan x="0" y="0" class="st11" style="font-family:'PlayfairDisplaySC-Bold'; font-size:7.4973px;">CORPORATE </tspan><tspan x="0" y="7.2" class="st11" style="font-family:'PlayfairDisplaySC-Bold'; font-size:7.4973px;">FINANCE</tspan><tspan x="0" y="14.4" class="st11" style="font-family:'PlayfairDisplaySC-Bold'; font-size:7.4973px;">CONSULTING</tspan></text>
<rect x="399.4" y="80.5" style="fill:none;" width="56" height="6"/>
<text transform="matrix(1 0 0 1 399.3676 83.8735)" class="st1" style="font-family:'Avenir-Light'; font-size:4.4984px; letter-spacing:1;">ŁUKASZ ŁOZIŃSKI</text>
<g>
	<g>
		<g>
			<g>
				<defs>
					<path id="SVGID_23_" d="M387.2,67.4h-4.6l-2.2-14.3l2.4,2.3l-0.8,1.5l1.6,3.7l1.6-3.7l-0.8-1.5l2.3-2.2l1.3,3l-1.2,1.1v4.1
						l2.9-2.7l-0.4-2.5l3.1-0.2L387.2,67.4z M382.8,67h4.1l4.9-10.7l-2.2,0.1l0.4,2.3l-3.6,3.3v-5l1.2-1l-1-2.3l-1.8,1.7l0.7,1.5
						l0,0.1l-1.9,4.5l-2-4.6l0.7-1.5l-1.5-1.4L382.8,67z"/>
				</defs>
				<clipPath id="SVGID_24_">
					<use xlink:href="#SVGID_23_"  style="overflow:visible;"/>
				</clipPath>
				<rect x="380.9" y="53.7" class="st163" width="0.2" height="13.3"/>
				<rect x="381.1" y="53.7" class="st164" width="0.3" height="13.3"/>
				<rect x="381.4" y="53.7" class="st165" width="0.3" height="13.3"/>
				<rect x="381.7" y="53.7" class="st166" width="0.3" height="13.3"/>
				<rect x="382.1" y="53.7" class="st167" width="0.3" height="13.3"/>
				<rect x="382.4" y="53.7" class="st168" width="0.3" height="13.3"/>
				<rect x="382.7" y="53.7" class="st169" width="0.3" height="13.3"/>
				<rect x="383.1" y="53.7" class="st170" width="0.3" height="13.3"/>
				<rect x="383.4" y="53.7" class="st171" width="0.3" height="13.3"/>
				<rect x="383.7" y="53.7" class="st172" width="0.3" height="13.3"/>
				<rect x="384.1" y="53.7" class="st173" width="0.3" height="13.3"/>
				<rect x="384.4" y="53.7" class="st174" width="0.3" height="13.3"/>
				<rect x="384.7" y="53.7" class="st175" width="0.3" height="13.3"/>
				<rect x="385.1" y="53.7" class="st176" width="0.3" height="13.3"/>
				<rect x="385.4" y="53.7" class="st177" width="0.3" height="13.3"/>
				<rect x="385.7" y="53.7" class="st178" width="0.3" height="13.3"/>
				<rect x="386.1" y="53.7" class="st179" width="0.3" height="13.3"/>
				<rect x="386.4" y="53.7" class="st180" width="0.3" height="13.3"/>
				<rect x="386.7" y="53.7" class="st181" width="0.3" height="13.3"/>
				<rect x="387.1" y="53.7" class="st182" width="0.3" height="13.3"/>
				<rect x="387.4" y="53.7" class="st183" width="0.3" height="13.3"/>
				<rect x="387.7" y="53.7" class="st184" width="0.3" height="13.3"/>
				<rect x="388.1" y="53.7" class="st185" width="0.3" height="13.3"/>
				<rect x="388.4" y="53.7" class="st186" width="0.3" height="13.3"/>
				<rect x="388.8" y="53.7" class="st187" width="0.3" height="13.3"/>
				<rect x="389.1" y="53.7" class="st188" width="0.3" height="13.3"/>
				<rect x="389.4" y="53.7" class="st189" width="0.3" height="13.3"/>
				<rect x="389.8" y="53.7" class="st190" width="0.3" height="13.3"/>
				<rect x="390.1" y="53.7" class="st191" width="0.3" height="13.3"/>
				<rect x="390.4" y="53.7" class="st192" width="0.3" height="13.3"/>
				<rect x="390.8" y="53.7" class="st193" width="0.3" height="13.3"/>
				<rect x="391.1" y="53.7" class="st194" width="0.3" height="13.3"/>
				<rect x="391.4" y="53.7" class="st195" width="0.3" height="13.3"/>
				<rect x="391.8" y="53.7" class="st196" width="0.1" height="13.3"/>
				<path class="st197" d="M380.4,53.1v14.3V53.1z"/>
				<rect x="380.4" y="53.1" class="st197" width="0.3" height="14.3"/>
				<rect x="380.7" y="53.1" class="st163" width="0.3" height="14.3"/>
				<rect x="381.1" y="53.1" class="st164" width="0.3" height="14.3"/>
				<rect x="381.4" y="53.1" class="st165" width="0.3" height="14.3"/>
				<rect x="381.7" y="53.1" class="st166" width="0.3" height="14.3"/>
				<rect x="382.1" y="53.1" class="st167" width="0.3" height="14.3"/>
				<rect x="382.4" y="53.1" class="st168" width="0.3" height="14.3"/>
				<rect x="382.7" y="53.1" class="st169" width="0.3" height="14.3"/>
				<rect x="383.1" y="53.1" class="st170" width="0.3" height="14.3"/>
				<rect x="383.4" y="53.1" class="st171" width="0.3" height="14.3"/>
				<rect x="383.7" y="53.1" class="st172" width="0.3" height="14.3"/>
				<rect x="384.1" y="53.1" class="st173" width="0.3" height="14.3"/>
				<rect x="384.4" y="53.1" class="st174" width="0.3" height="14.3"/>
				<rect x="384.7" y="53.1" class="st175" width="0.3" height="14.3"/>
				<rect x="385.1" y="53.1" class="st176" width="0.3" height="14.3"/>
				<rect x="385.4" y="53.1" class="st177" width="0.3" height="14.3"/>
				<rect x="385.7" y="53.1" class="st178" width="0.3" height="14.3"/>
				<rect x="386.1" y="53.1" class="st179" width="0.3" height="14.3"/>
				<rect x="386.4" y="53.1" class="st180" width="0.3" height="14.3"/>
				<rect x="386.7" y="53.1" class="st181" width="0.3" height="14.3"/>
				<rect x="387.1" y="53.1" class="st182" width="0.3" height="14.3"/>
				<rect x="387.4" y="53.1" class="st183" width="0.3" height="14.3"/>
				<rect x="387.7" y="53.1" class="st184" width="0.3" height="14.3"/>
				<rect x="388.1" y="53.1" class="st185" width="0.3" height="14.3"/>
				<rect x="388.4" y="53.1" class="st186" width="0.3" height="14.3"/>
				<rect x="388.8" y="53.1" class="st187" width="0.3" height="14.3"/>
				<rect x="389.1" y="53.1" class="st188" width="0.3" height="14.3"/>
				<rect x="389.4" y="53.1" class="st189" width="0.3" height="14.3"/>
				<rect x="389.8" y="53.1" class="st190" width="0.3" height="14.3"/>
				<rect x="390.1" y="53.1" class="st191" width="0.3" height="14.3"/>
				<rect x="390.4" y="53.1" class="st192" width="0.3" height="14.3"/>
				<rect x="390.8" y="53.1" class="st193" width="0.3" height="14.3"/>
				<rect x="391.1" y="53.1" class="st194" width="0.3" height="14.3"/>
				<rect x="391.4" y="53.1" class="st195" width="0.3" height="14.3"/>
				<rect x="391.8" y="53.1" class="st196" width="0.3" height="14.3"/>
				<rect x="392.1" y="53.1" class="st198" width="0.3" height="14.3"/>
				<path class="st198" d="M392.4,67.4V53.1V67.4z"/>
			</g>
		</g>
	</g>
	<g>
		<g>
			<path class="st1" d="M393.7,86.5h-14.4v-5.2h14.4V86.5z M379.6,86.2h13.7v-4.5h-13.7V86.2z"/>
		</g>
	</g>
	<g>
		<g>
			<path class="st1" d="M384.3,63.8l-0.9-2.7l1.8-4.1l-0.8-1.5l2.3-2.2l0.1,0.3l0,0.1c-0.6,2.2-2.4,9.6-2.4,9.7L384.3,63.8z
				 M383.8,61.1l0.5,1.5c0.4-1.6,1.6-6.5,2.1-8.7l-1.6,1.6l0.7,1.5L383.8,61.1z"/>
		</g>
	</g>
	<g>
		<g>
			<g>
				<defs>
					<path id="SVGID_25_" d="M379.6,86.5h-6.1v-5.2h6.1V86.5z M373.8,86.2h5.5v-4.5h-5.5V86.2z"/>
				</defs>
				<clipPath id="SVGID_26_">
					<use xlink:href="#SVGID_25_"  style="overflow:visible;"/>
				</clipPath>
				<polygon class="st199" points="379,86.2 379.3,85.9 379.3,86.2 				"/>
				<polygon class="st200" points="378.7,86.2 379.3,85.6 379.3,85.9 379,86.2 				"/>
				<polygon class="st201" points="378.4,86.2 379.3,85.3 379.3,85.6 378.7,86.2 				"/>
				<polygon class="st202" points="378,86.2 379.3,85 379.3,85.3 378.4,86.2 				"/>
				<polygon class="st203" points="377.7,86.2 379.3,84.7 379.3,85 378,86.2 				"/>
				<polygon class="st204" points="377.4,86.2 379.3,84.4 379.3,84.7 377.7,86.2 				"/>
				<polygon class="st205" points="377,86.2 379.3,84.1 379.3,84.4 377.4,86.2 				"/>
				<polygon class="st206" points="376.7,86.2 379.3,83.8 379.3,84.1 377,86.2 				"/>
				<polygon class="st207" points="376.4,86.2 379.3,83.5 379.3,83.8 376.7,86.2 				"/>
				<polygon class="st208" points="376.1,86.2 379.3,83.2 379.3,83.5 376.4,86.2 				"/>
				<polygon class="st209" points="375.7,86.2 379.3,83 379.3,83.2 376.1,86.2 				"/>
				<polygon class="st210" points="375.4,86.2 379.3,82.7 379.3,83 375.7,86.2 				"/>
				<polygon class="st211" points="375.1,86.2 379.3,82.4 379.3,82.7 375.4,86.2 				"/>
				<polygon class="st212" points="374.7,86.2 379.3,82.1 379.3,82.4 375.1,86.2 				"/>
				<polygon class="st213" points="374.4,86.2 379.3,81.8 379.3,82.1 374.7,86.2 				"/>
				<polygon class="st214" points="374.1,86.2 379,81.7 379.3,81.7 379.3,81.8 374.4,86.2 				"/>
				<polygon class="st215" points="373.8,86.1 378.7,81.7 379,81.7 374.1,86.2 373.8,86.2 				"/>
				<polygon class="st216" points="373.8,85.8 378.4,81.7 378.7,81.7 373.8,86.1 				"/>
				<polygon class="st217" points="373.8,85.5 378.1,81.7 378.4,81.7 373.8,85.8 				"/>
				<polygon class="st218" points="373.8,85.2 377.7,81.7 378.1,81.7 373.8,85.5 				"/>
				<polygon class="st219" points="373.8,84.9 377.4,81.7 377.7,81.7 373.8,85.2 				"/>
				<polygon class="st220" points="373.8,84.6 377.1,81.7 377.4,81.7 373.8,84.9 				"/>
				<polygon class="st221" points="373.8,84.3 376.7,81.7 377.1,81.7 373.8,84.6 				"/>
				<polygon class="st222" points="373.8,84 376.4,81.7 376.7,81.7 373.8,84.3 				"/>
				<polygon class="st223" points="373.8,83.7 376.1,81.7 376.4,81.7 373.8,84 				"/>
				<polygon class="st224" points="373.8,83.4 375.7,81.7 376.1,81.7 373.8,83.7 				"/>
				<polygon class="st225" points="373.8,83.1 375.4,81.7 375.7,81.7 373.8,83.4 				"/>
				<polygon class="st226" points="373.8,82.9 375.1,81.7 375.4,81.7 373.8,83.1 				"/>
				<polygon class="st227" points="373.8,82.6 374.8,81.7 375.1,81.7 373.8,82.9 				"/>
				<polygon class="st228" points="373.8,82.3 374.4,81.7 374.8,81.7 373.8,82.6 				"/>
				<polygon class="st229" points="373.8,82 374.1,81.7 374.4,81.7 373.8,82.3 				"/>
				<polygon class="st230" points="374.1,81.7 373.8,82 373.8,81.7 				"/>
				<path class="st231" d="M379.6,86.5L379.6,86.5L379.6,86.5z"/>
				<path class="st231" d="M379.3,86.5l0.3-0.3L379.3,86.5z"/>
				<polygon class="st232" points="379,86.5 379.6,85.9 379.6,86.2 379.3,86.5 				"/>
				<polygon class="st199" points="378.6,86.5 379.6,85.6 379.6,85.9 379,86.5 				"/>
				<polygon class="st200" points="378.3,86.5 379.6,85.3 379.6,85.6 378.6,86.5 				"/>
				<polygon class="st201" points="378,86.5 379.6,85 379.6,85.3 378.3,86.5 				"/>
				<polygon class="st202" points="377.7,86.5 379.6,84.7 379.6,85 378,86.5 				"/>
				<polygon class="st203" points="377.3,86.5 379.6,84.4 379.6,84.7 377.7,86.5 				"/>
				<polygon class="st204" points="377,86.5 379.6,84.1 379.6,84.4 377.3,86.5 				"/>
				<polygon class="st205" points="376.7,86.5 379.6,83.8 379.6,84.1 377,86.5 				"/>
				<polygon class="st206" points="376.3,86.5 379.6,83.5 379.6,83.8 376.7,86.5 				"/>
				<polygon class="st207" points="376,86.5 379.6,83.2 379.6,83.5 376.3,86.5 				"/>
				<polygon class="st208" points="375.7,86.5 379.6,82.9 379.6,83.2 376,86.5 				"/>
				<polygon class="st209" points="375.4,86.5 379.6,82.7 379.6,82.9 375.7,86.5 				"/>
				<polygon class="st210" points="375,86.5 379.6,82.4 379.6,82.7 375.4,86.5 				"/>
				<polygon class="st211" points="374.7,86.5 379.6,82.1 379.6,82.4 375,86.5 				"/>
				<polygon class="st212" points="374.4,86.5 379.6,81.8 379.6,82.1 374.7,86.5 				"/>
				<polygon class="st213" points="374,86.5 379.6,81.5 379.6,81.8 374.4,86.5 				"/>
				<polygon class="st214" points="373.7,86.5 379.4,81.4 379.6,81.4 379.6,81.5 374,86.5 				"/>
				<polygon class="st215" points="373.5,86.4 379.1,81.4 379.4,81.4 373.7,86.5 373.5,86.5 				"/>
				<polygon class="st216" points="373.5,86.1 378.7,81.4 379.1,81.4 373.5,86.4 				"/>
				<polygon class="st217" points="373.5,85.8 378.4,81.4 378.7,81.4 373.5,86.1 				"/>
				<polygon class="st218" points="373.5,85.5 378.1,81.4 378.4,81.4 373.5,85.8 				"/>
				<polygon class="st219" points="373.5,85.2 377.8,81.4 378.1,81.4 373.5,85.5 				"/>
				<polygon class="st220" points="373.5,84.9 377.4,81.4 377.8,81.4 373.5,85.2 				"/>
				<polygon class="st221" points="373.5,84.6 377.1,81.4 377.4,81.4 373.5,84.9 				"/>
				<polygon class="st222" points="373.5,84.3 376.8,81.4 377.1,81.4 373.5,84.6 				"/>
				<polygon class="st223" points="373.5,84 376.4,81.4 376.8,81.4 373.5,84.3 				"/>
				<polygon class="st224" points="373.5,83.7 376.1,81.4 376.4,81.4 373.5,84 				"/>
				<polygon class="st225" points="373.5,83.5 375.8,81.4 376.1,81.4 373.5,83.7 				"/>
				<polygon class="st226" points="373.5,83.2 375.5,81.4 375.8,81.4 373.5,83.5 				"/>
				<polygon class="st227" points="373.5,82.9 375.1,81.4 375.5,81.4 373.5,83.2 				"/>
				<polygon class="st228" points="373.5,82.6 374.8,81.4 375.1,81.4 373.5,82.9 				"/>
				<polygon class="st229" points="373.5,82.3 374.5,81.4 374.8,81.4 373.5,82.6 				"/>
				<polygon class="st230" points="373.5,82 374.1,81.4 374.5,81.4 373.5,82.3 				"/>
				<polygon class="st233" points="373.5,81.7 373.8,81.4 374.1,81.4 373.5,82 				"/>
				<polygon class="st234" points="373.5,81.4 373.5,81.4 373.8,81.4 373.5,81.7 				"/>
				<path class="st234" d="M373.5,81.4L373.5,81.4L373.5,81.4z"/>
			</g>
		</g>
	</g>
	<g>
		<g>
			<g>
				<defs>
					<path id="SVGID_27_" d="M381.9,79.9h-4.5l2.6-12.6L374.7,56l3.1,0.2l-0.4,2.5l2.9,2.7v-4.1l-1.2-1.1l1.3-3l0.4,0.4l0,0.1
						l2,13.5h4.5l-0.1,0.3l0.2,0.8l-3.6,1.6L381.9,79.9z M377.8,79.6h3.8l1.9-10.2l3.5-1.5l-0.1-0.5h-4.3l-2.1-13.6l-1,2.3l1.2,1v5
						l-3.6-3.3l0.4-2.3l-2.2-0.1l5.1,10.9L377.8,79.6z"/>
				</defs>
				<clipPath id="SVGID_28_">
					<use xlink:href="#SVGID_27_"  style="overflow:visible;"/>
				</clipPath>
				<polygon class="st235" points="375.6,53.8 375.3,55.3 375.3,53.8 				"/>
				<polygon class="st236" points="376,53.8 375.3,57.5 375.3,55.3 375.6,53.8 				"/>
				<polygon class="st237" points="376.4,53.8 375.3,59.8 375.3,57.5 376,53.8 				"/>
				<polygon class="st238" points="376.8,53.8 375.3,62 375.3,59.8 376.4,53.8 				"/>
				<polygon class="st239" points="377.2,53.8 375.3,64.2 375.3,62 376.8,53.8 				"/>
				<polygon class="st240" points="377.6,53.8 375.3,66.4 375.3,64.2 377.2,53.8 				"/>
				<polygon class="st241" points="378,53.8 375.3,68.6 375.3,66.4 377.6,53.8 				"/>
				<polygon class="st242" points="378.5,53.8 375.3,70.9 375.3,68.6 378,53.8 				"/>
				<polygon class="st243" points="378.9,53.8 375.3,73.1 375.3,70.9 378.5,53.8 				"/>
				<polygon class="st244" points="379.3,53.8 375.3,75.3 375.3,73.1 378.9,53.8 				"/>
				<polygon class="st245" points="379.7,53.8 375.3,77.5 375.3,75.3 379.3,53.8 				"/>
				<polygon class="st246" points="380.1,53.8 375.3,79.6 375.3,79.6 375.3,77.5 379.7,53.8 				"/>
				<polygon class="st247" points="380.5,53.8 375.7,79.6 375.3,79.6 380.1,53.8 				"/>
				<polygon class="st248" points="380.9,53.8 376.1,79.6 375.7,79.6 380.5,53.8 				"/>
				<polygon class="st249" points="381.3,53.8 376.5,79.6 376.1,79.6 380.9,53.8 				"/>
				<polygon class="st250" points="381.8,53.8 377,79.6 376.5,79.6 381.3,53.8 				"/>
				<polygon class="st251" points="382.2,53.8 377.4,79.6 377,79.6 381.8,53.8 				"/>
				<polygon class="st252" points="382.6,53.8 377.8,79.6 377.4,79.6 382.2,53.8 				"/>
				<polygon class="st253" points="383,53.8 378.2,79.6 377.8,79.6 382.6,53.8 				"/>
				<polygon class="st254" points="383.4,53.8 378.6,79.6 378.2,79.6 383,53.8 				"/>
				<polygon class="st255" points="383.8,53.8 379,79.6 378.6,79.6 383.4,53.8 				"/>
				<polygon class="st256" points="384.2,53.8 379.4,79.6 379,79.6 383.8,53.8 				"/>
				<polygon class="st257" points="384.6,53.8 379.8,79.6 379.4,79.6 384.2,53.8 				"/>
				<polygon class="st258" points="385.1,53.8 380.3,79.6 379.8,79.6 384.6,53.8 				"/>
				<polygon class="st259" points="385.5,53.8 380.7,79.6 380.3,79.6 385.1,53.8 				"/>
				<polygon class="st260" points="385.9,53.8 381.1,79.6 380.7,79.6 385.5,53.8 				"/>
				<polygon class="st261" points="386.3,53.8 381.5,79.6 381.1,79.6 385.9,53.8 				"/>
				<polygon class="st262" points="386.7,53.8 381.9,79.6 381.5,79.6 386.3,53.8 				"/>
				<polygon class="st263" points="387,54.6 382.3,79.6 381.9,79.6 386.7,53.8 387,53.8 				"/>
				<polygon class="st264" points="387,56.8 382.7,79.6 382.3,79.6 387,54.6 				"/>
				<polygon class="st265" points="387,59 383.2,79.6 382.7,79.6 387,56.8 				"/>
				<polygon class="st266" points="387,61.3 383.6,79.6 383.2,79.6 387,59 				"/>
				<polygon class="st267" points="387,63.5 384,79.6 383.6,79.6 387,61.3 				"/>
				<polygon class="st268" points="387,65.7 384.4,79.6 384,79.6 387,63.5 				"/>
				<polygon class="st269" points="387,67.9 384.8,79.6 384.4,79.6 387,65.7 				"/>
				<polygon class="st270" points="387,70.1 385.2,79.6 384.8,79.6 387,67.9 				"/>
				<polygon class="st270" points="385.2,79.6 387,70.1 387,79.6 				"/>
				<polygon class="st235" points="375.3,53.1 374.7,56 374.7,53.1 				"/>
				<polygon class="st235" points="375.7,53.1 374.7,58.2 374.7,56 375.3,53.1 				"/>
				<polygon class="st236" points="376.1,53.1 374.7,60.4 374.7,58.2 375.7,53.1 				"/>
				<polygon class="st237" points="376.5,53.1 374.7,62.6 374.7,60.4 376.1,53.1 				"/>
				<polygon class="st238" points="376.9,53.1 374.7,64.9 374.7,62.6 376.5,53.1 				"/>
				<polygon class="st239" points="377.3,53.1 374.7,67.1 374.7,64.9 376.9,53.1 				"/>
				<polygon class="st240" points="377.7,53.1 374.7,69.3 374.7,67.1 377.3,53.1 				"/>
				<polygon class="st241" points="378.2,53.1 374.7,71.5 374.7,69.3 377.7,53.1 				"/>
				<polygon class="st242" points="378.6,53.1 374.7,73.7 374.7,71.5 378.2,53.1 				"/>
				<polygon class="st243" points="379,53.1 374.7,76 374.7,73.7 378.6,53.1 				"/>
				<polygon class="st244" points="379.4,53.1 374.7,78.2 374.7,76 379,53.1 				"/>
				<polygon class="st245" points="379.8,53.1 374.8,79.9 374.7,79.9 374.7,78.2 379.4,53.1 				"/>
				<polygon class="st246" points="380.2,53.1 375.2,79.9 374.8,79.9 379.8,53.1 				"/>
				<polygon class="st247" points="380.6,53.1 375.7,79.9 375.2,79.9 380.2,53.1 				"/>
				<polygon class="st248" points="381.1,53.1 376.1,79.9 375.7,79.9 380.6,53.1 				"/>
				<polygon class="st249" points="381.5,53.1 376.5,79.9 376.1,79.9 381.1,53.1 				"/>
				<polygon class="st250" points="381.9,53.1 376.9,79.9 376.5,79.9 381.5,53.1 				"/>
				<polygon class="st251" points="382.3,53.1 377.3,79.9 376.9,79.9 381.9,53.1 				"/>
				<polygon class="st252" points="382.7,53.1 377.7,79.9 377.3,79.9 382.3,53.1 				"/>
				<polygon class="st253" points="383.1,53.1 378.1,79.9 377.7,79.9 382.7,53.1 				"/>
				<polygon class="st254" points="383.5,53.1 378.5,79.9 378.1,79.9 383.1,53.1 				"/>
				<polygon class="st255" points="383.9,53.1 379,79.9 378.5,79.9 383.5,53.1 				"/>
				<polygon class="st256" points="384.4,53.1 379.4,79.9 379,79.9 383.9,53.1 				"/>
				<polygon class="st257" points="384.8,53.1 379.8,79.9 379.4,79.9 384.4,53.1 				"/>
				<polygon class="st258" points="385.2,53.1 380.2,79.9 379.8,79.9 384.8,53.1 				"/>
				<polygon class="st259" points="385.6,53.1 380.6,79.9 380.2,79.9 385.2,53.1 				"/>
				<polygon class="st260" points="386,53.1 381,79.9 380.6,79.9 385.6,53.1 				"/>
				<polygon class="st261" points="386.4,53.1 381.4,79.9 381,79.9 386,53.1 				"/>
				<polygon class="st262" points="386.8,53.1 381.9,79.9 381.4,79.9 386.4,53.1 				"/>
				<polygon class="st263" points="387.2,53.1 382.3,79.9 381.9,79.9 386.8,53.1 				"/>
				<polygon class="st264" points="387.4,54.8 382.7,79.9 382.3,79.9 387.2,53.1 387.4,53.1 				"/>
				<polygon class="st265" points="387.4,57 383.1,79.9 382.7,79.9 387.4,54.8 				"/>
				<polygon class="st266" points="387.4,59.2 383.5,79.9 383.1,79.9 387.4,57 				"/>
				<polygon class="st267" points="387.4,61.4 383.9,79.9 383.5,79.9 387.4,59.2 				"/>
				<polygon class="st268" points="387.4,63.7 384.3,79.9 383.9,79.9 387.4,61.4 				"/>
				<polygon class="st269" points="387.4,65.9 384.7,79.9 384.3,79.9 387.4,63.7 				"/>
				<polygon class="st270" points="387.4,68.1 385.2,79.9 384.7,79.9 387.4,65.9 				"/>
				<polygon class="st270" points="385.2,79.9 387.4,68.1 387.4,79.9 				"/>
			</g>
		</g>
	</g>
	<g>
		<g>
			<g>
				<defs>
					<path id="SVGID_29_" d="M389.8,79.9h-8.3l1.9-10.5l3.8-1.7L389.8,79.9z M381.9,79.6h7.5L387,68.2l-3.3,1.4L381.9,79.6z"/>
				</defs>
				<clipPath id="SVGID_30_">
					<use xlink:href="#SVGID_29_"  style="overflow:visible;"/>
				</clipPath>
				<rect x="381.9" y="68.2" class="st271" width="0.1" height="11.4"/>
				<rect x="382" y="68.2" class="st272" width="0.2" height="11.4"/>
				<rect x="382.2" y="68.2" class="st273" width="0.2" height="11.4"/>
				<rect x="382.4" y="68.2" class="st274" width="0.2" height="11.4"/>
				<rect x="382.7" y="68.2" class="st275" width="0.2" height="11.4"/>
				<rect x="382.9" y="68.2" class="st276" width="0.2" height="11.4"/>
				<rect x="383.1" y="68.2" class="st277" width="0.2" height="11.4"/>
				<rect x="383.4" y="68.2" class="st278" width="0.2" height="11.4"/>
				<rect x="383.6" y="68.2" class="st279" width="0.2" height="11.4"/>
				<rect x="383.8" y="68.2" class="st280" width="0.2" height="11.4"/>
				<rect x="384" y="68.2" class="st281" width="0.2" height="11.4"/>
				<rect x="384.3" y="68.2" class="st282" width="0.2" height="11.4"/>
				<rect x="384.5" y="68.2" class="st283" width="0.2" height="11.4"/>
				<rect x="384.7" y="68.2" class="st284" width="0.2" height="11.4"/>
				<rect x="385" y="68.2" class="st285" width="0.2" height="11.4"/>
				<rect x="385.2" y="68.2" class="st286" width="0.2" height="11.4"/>
				<rect x="385.4" y="68.2" class="st287" width="0.2" height="11.4"/>
				<rect x="385.7" y="68.2" class="st288" width="0.2" height="11.4"/>
				<rect x="385.9" y="68.2" class="st289" width="0.2" height="11.4"/>
				<rect x="386.1" y="68.2" class="st290" width="0.2" height="11.4"/>
				<rect x="386.3" y="68.2" class="st291" width="0.2" height="11.4"/>
				<rect x="386.6" y="68.2" class="st292" width="0.2" height="11.4"/>
				<rect x="386.8" y="68.2" class="st293" width="0.2" height="11.4"/>
				<rect x="387" y="68.2" class="st294" width="0.2" height="11.4"/>
				<rect x="387.3" y="68.2" class="st295" width="0.2" height="11.4"/>
				<rect x="387.5" y="68.2" class="st296" width="0.2" height="11.4"/>
				<rect x="387.7" y="68.2" class="st297" width="0.2" height="11.4"/>
				<rect x="388" y="68.2" class="st298" width="0.2" height="11.4"/>
				<rect x="388.2" y="68.2" class="st299" width="0.2" height="11.4"/>
				<rect x="388.4" y="68.2" class="st300" width="0.2" height="11.4"/>
				<rect x="388.6" y="68.2" class="st301" width="0.2" height="11.4"/>
				<rect x="388.9" y="68.2" class="st302" width="0.2" height="11.4"/>
				<rect x="389.1" y="68.2" class="st303" width="0.2" height="11.4"/>
				<rect x="389.3" y="68.2" class="st304" width="0.1" height="11.4"/>
				<path class="st305" d="M381.5,67.8v12.2V67.8z"/>
				<rect x="381.5" y="67.8" class="st305" width="0.2" height="12.2"/>
				<rect x="381.8" y="67.8" class="st271" width="0.2" height="12.2"/>
				<rect x="382" y="67.8" class="st272" width="0.2" height="12.2"/>
				<rect x="382.2" y="67.8" class="st273" width="0.2" height="12.2"/>
				<rect x="382.4" y="67.8" class="st274" width="0.2" height="12.2"/>
				<rect x="382.7" y="67.8" class="st275" width="0.2" height="12.2"/>
				<rect x="382.9" y="67.8" class="st276" width="0.2" height="12.2"/>
				<rect x="383.1" y="67.8" class="st277" width="0.2" height="12.2"/>
				<rect x="383.4" y="67.8" class="st278" width="0.2" height="12.2"/>
				<rect x="383.6" y="67.8" class="st279" width="0.2" height="12.2"/>
				<rect x="383.8" y="67.8" class="st280" width="0.2" height="12.2"/>
				<rect x="384" y="67.8" class="st281" width="0.2" height="12.2"/>
				<rect x="384.3" y="67.8" class="st282" width="0.2" height="12.2"/>
				<rect x="384.5" y="67.8" class="st283" width="0.2" height="12.2"/>
				<rect x="384.7" y="67.8" class="st284" width="0.2" height="12.2"/>
				<rect x="385" y="67.8" class="st285" width="0.2" height="12.2"/>
				<rect x="385.2" y="67.8" class="st286" width="0.2" height="12.2"/>
				<rect x="385.4" y="67.8" class="st287" width="0.2" height="12.2"/>
				<rect x="385.7" y="67.8" class="st288" width="0.2" height="12.2"/>
				<rect x="385.9" y="67.8" class="st289" width="0.2" height="12.2"/>
				<rect x="386.1" y="67.8" class="st290" width="0.2" height="12.2"/>
				<rect x="386.3" y="67.8" class="st291" width="0.2" height="12.2"/>
				<rect x="386.6" y="67.8" class="st292" width="0.2" height="12.2"/>
				<rect x="386.8" y="67.8" class="st293" width="0.2" height="12.2"/>
				<rect x="387" y="67.8" class="st294" width="0.2" height="12.2"/>
				<rect x="387.3" y="67.8" class="st295" width="0.2" height="12.2"/>
				<rect x="387.5" y="67.8" class="st296" width="0.2" height="12.2"/>
				<rect x="387.7" y="67.8" class="st297" width="0.2" height="12.2"/>
				<rect x="388" y="67.8" class="st298" width="0.2" height="12.2"/>
				<rect x="388.2" y="67.8" class="st299" width="0.2" height="12.2"/>
				<rect x="388.4" y="67.8" class="st300" width="0.2" height="12.2"/>
				<rect x="388.6" y="67.8" class="st301" width="0.2" height="12.2"/>
				<rect x="388.9" y="67.8" class="st302" width="0.2" height="12.2"/>
				<rect x="389.1" y="67.8" class="st303" width="0.2" height="12.2"/>
				<rect x="389.3" y="67.8" class="st304" width="0.2" height="12.2"/>
				<rect x="389.6" y="67.8" class="st306" width="0.2" height="12.2"/>
				<path class="st306" d="M389.8,79.9V67.8V79.9z"/>
			</g>
		</g>
	</g>
</g>
</svg>
